<svg id="Group_11528" data-name="Group 11528" xmlns="http://www.w3.org/2000/svg" width="47.544" height="29.597" viewBox="0 0 47.544 29.597">
  <g id="Group_11527" data-name="Group 11527">
    <path id="Path_5440" data-name="Path 5440" d="M128.334,78.982a.939.939,0,0,0-.123-.123L114.745,65.1a1.086,1.086,0,0,0-1.882.724v7.24H95.415c-.652,0-1.376.145-1.376.724V85.375a1.665,1.665,0,0,0,1.376,1.448h17.448v6.516a1.158,1.158,0,0,0,.652,1.014h.434a1.159,1.159,0,0,0,.8-.362l13.466-13.683A.941.941,0,0,0,128.334,78.982Z" transform="translate(-81.007 -64.756)" fill="#8171ff"/>
    <path id="Path_5441" data-name="Path 5441" d="M63.78,122.122a1.086,1.086,0,0,0-1.086,1.086v11.584a1.086,1.086,0,0,0,2.172,0V123.208A1.086,1.086,0,0,0,63.78,122.122Z" transform="translate(-54.006 -114.172)" fill="#8171ff"/>
    <path id="Path_5442" data-name="Path 5442" d="M32.433,122.122a1.086,1.086,0,0,0-1.086,1.086v11.584a1.086,1.086,0,0,0,2.172,0V123.208A1.086,1.086,0,0,0,32.433,122.122Z" transform="translate(-27.003 -114.172)" fill="#8171ff"/>
    <path id="Path_5443" data-name="Path 5443" d="M1.086,122.122A1.086,1.086,0,0,0,0,123.208v11.584a1.086,1.086,0,0,0,2.172,0V123.208A1.086,1.086,0,0,0,1.086,122.122Z" transform="translate(0 -114.172)" fill="#8171ff"/>
  </g>
</svg>
