<svg xmlns="http://www.w3.org/2000/svg" xmlns:xlink="http://www.w3.org/1999/xlink" width="190.3" height="183.105" viewBox="0 0 190.3 183.105">
  <defs>
    <filter id="Path_5734" x="3.386" y="58.265" width="32.692" height="32.692" filterUnits="userSpaceOnUse">
      <feOffset input="SourceAlpha"/>
      <feGaussianBlur stdDeviation="1" result="blur"/>
      <feFlood flood-opacity="0.071"/>
      <feComposite operator="in" in2="blur"/>
      <feComposite in="SourceGraphic"/>
    </filter>
    <filter id="Path_5740" x="9.894" y="0" width="62.152" height="62.225" filterUnits="userSpaceOnUse">
      <feOffset input="SourceAlpha"/>
      <feGaussianBlur stdDeviation="1" result="blur-2"/>
      <feFlood flood-opacity="0.071"/>
      <feComposite operator="in" in2="blur-2"/>
      <feComposite in="SourceGraphic"/>
    </filter>
    <filter id="Path_5736" x="97.51" y="12.86" width="29.675" height="29.675" filterUnits="userSpaceOnUse">
      <feOffset input="SourceAlpha"/>
      <feGaussianBlur stdDeviation="1" result="blur-3"/>
      <feFlood flood-opacity="0.071"/>
      <feComposite operator="in" in2="blur-3"/>
      <feComposite in="SourceGraphic"/>
    </filter>
    <filter id="Path_5738" x="136.8" y="34.389" width="39.969" height="39.993" filterUnits="userSpaceOnUse">
      <feOffset input="SourceAlpha"/>
      <feGaussianBlur stdDeviation="1" result="blur-4"/>
      <feFlood flood-opacity="0.071"/>
      <feComposite operator="in" in2="blur-4"/>
      <feComposite in="SourceGraphic"/>
    </filter>
  </defs>
  <g id="Group_11638" data-name="Group 11638" transform="translate(33 12283.607)">
    <g id="Group_11632" data-name="Group 11632" transform="translate(-9421.993 -4473.402) rotate(51)" opacity="0.55">
      <g id="Group_11600" data-name="Group 11600" transform="translate(-107.284 -12180.702) rotate(-43)">
        <g transform="matrix(0.99, -0.14, 0.14, 0.99, -18.11, -59.32)" filter="url(#Path_5734)">
          <path id="Path_5734-2" data-name="Path 5734" d="M11.817,0A11.816,11.816,0,1,1,0,11.817,11.817,11.817,0,0,1,11.817,0Z" transform="translate(9.67 61.27) rotate(8)" fill="#fff"/>
        </g>
        <path id="Path_5735" data-name="Path 5735" d="M10.152,4.153,0,8.3V0Z" transform="translate(18.557 7.664)" fill="#fff"/>
      </g>
      <g id="Group_11619" data-name="Group 11619" transform="translate(-101.062 -12183.322) rotate(-43)">
        <path id="Path_5779" data-name="Path 5779" d="M7.859,13.922H0A6.729,6.729,0,0,0,.922,11.48a36.438,36.438,0,0,0,.629-4.116c.086-.8.154-1.606.21-2.375.039-.531.072-1.042.1-1.524.061-1.06.1-1.972.118-2.593C2,.323,2,0,2,0H5.856s.006.323.023.873c.022.621.058,1.533.119,2.593.028.482.061.993.1,1.524.055.769.124,1.573.209,2.375a36.256,36.256,0,0,0,.63,4.116A6.729,6.729,0,0,0,7.859,13.922Z" transform="translate(0 3.84)" fill="#d1d3d4"/>
        <path id="Path_5780" data-name="Path 5780" d="M3.929,13.922a6.73,6.73,0,0,1-.921-2.442,36.254,36.254,0,0,1-.63-4.116c-.086-.8-.154-1.606-.209-2.375-.039-.531-.072-1.042-.1-1.524-.061-1.06-.1-1.972-.119-2.593C1.932.323,1.927,0,1.927,0H0V13.922Z" transform="translate(3.93 3.84)" fill="#e6e7e8"/>
        <path id="Path_5781" data-name="Path 5781" d="M4.138,2.593H0C.061,1.533.1.621.118,0h3.9C4.041.621,4.077,1.533,4.138,2.593Z" transform="translate(1.86 4.713)" fill="#00647d"/>
        <path id="Path_5782" data-name="Path 5782" d="M6.016,4.116H0A36.438,36.438,0,0,0,.629,0H5.386A36.256,36.256,0,0,0,6.016,4.116Z" transform="translate(0.922 11.205)" fill="#00647d"/>
        <path id="Path_5783" data-name="Path 5783" d="M1.494.747A.747.747,0,1,1,.747,0,.747.747,0,0,1,1.494.747Z" transform="translate(3.183 1.957)" fill="#e6e7e8"/>
        <path id="Path_5784" data-name="Path 5784" d="M2,1A1,1,0,1,1,1,0,1,1,0,0,1,2,1Z" transform="translate(3.481 0.658)" fill="#e6e7e8"/>
        <path id="Path_5785" data-name="Path 5785" d="M2.152,1.076A1.076,1.076,0,1,1,1.076,0,1.076,1.076,0,0,1,2.152,1.076Z" transform="translate(4.407 1.076)" fill="#e6e7e8"/>
        <path id="Path_5786" data-name="Path 5786" d="M2.151,1.076A1.076,1.076,0,1,1,1.076,0,1.076,1.076,0,0,1,2.151,1.076Z" transform="translate(4.786 0)" fill="#e6e7e8"/>
        <path id="Path_5787" data-name="Path 5787" d="M1.39.695A.695.695,0,1,1,.7,0,.694.694,0,0,1,1.39.695Z" transform="translate(5.961 1.457)" fill="#e6e7e8"/>
        <path id="Path_5788" data-name="Path 5788" d="M2.152,1.076A1.076,1.076,0,1,1,1.076,0,1.076,1.076,0,0,1,2.152,1.076Z" transform="translate(6.349 0.179)" fill="#e6e7e8"/>
        <path id="Path_5789" data-name="Path 5789" d="M1.344.62a.647.647,0,0,1-.672.619A.647.647,0,0,1,0,.62.648.648,0,0,1,.672,0,.647.647,0,0,1,1.344.62Z" transform="translate(8.056 0.568)" fill="#e6e7e8"/>
        <path id="Path_5790" data-name="Path 5790" d="M.707.366A.36.36,0,0,1,.354.733.361.361,0,0,1,0,.366.36.36,0,0,1,.354,0,.36.36,0,0,1,.707.366Z" transform="translate(9.003 0.456)" fill="#e6e7e8"/>
        <path id="Path_5791" data-name="Path 5791" d="M5.367,9.508H0A4.592,4.592,0,0,0,.63,7.841,24.9,24.9,0,0,0,1.059,5.03c.059-.547.105-1.1.143-1.622.027-.362.049-.711.069-1.04.041-.724.066-1.347.081-1.771.012-.376.016-.6.016-.6H4s0,.22.016.6c.015.424.039,1.047.081,1.771.019.329.041.678.069,1.04.037.525.084,1.075.143,1.622a24.629,24.629,0,0,0,.43,2.811A4.592,4.592,0,0,0,5.367,9.508Z" transform="translate(5.817 5.351)" fill="#d1d3d4"/>
        <path id="Path_5792" data-name="Path 5792" d="M2.683,9.508a4.592,4.592,0,0,1-.629-1.668,24.631,24.631,0,0,1-.43-2.811c-.059-.547-.105-1.1-.143-1.622-.027-.362-.049-.711-.069-1.04C1.371,1.643,1.346,1.02,1.332.6,1.319.22,1.316,0,1.316,0H0V9.508Z" transform="translate(8.501 5.351)" fill="#e6e7e8"/>
        <path id="Path_5793" data-name="Path 5793" d="M2.826,1.771H0C.041,1.047.066.424.081,0H2.745C2.759.424,2.784,1.047,2.826,1.771Z" transform="translate(7.088 5.947)" fill="#00647d"/>
        <path id="Path_5794" data-name="Path 5794" d="M4.109,2.811H0A24.9,24.9,0,0,0,.429,0H3.679A24.633,24.633,0,0,0,4.109,2.811Z" transform="translate(6.447 10.381)" fill="#00647d"/>
        <path id="Path_5795" data-name="Path 5795" d="M2.054,2.811A24.632,24.632,0,0,1,1.624,0H0V2.811Z" transform="translate(8.501 10.381)" fill="#007896"/>
        <path id="Path_5796" data-name="Path 5796" d="M1.413,1.771C1.371,1.047,1.346.424,1.332,0H0V1.771Z" transform="translate(8.501 5.947)" fill="#007896"/>
        <path id="Path_5797" data-name="Path 5797" d="M3.008,4.116A36.256,36.256,0,0,1,2.379,0H0V4.116Z" transform="translate(3.929 11.205)" fill="#007896"/>
        <path id="Path_5798" data-name="Path 5798" d="M2.069,2.593C2.008,1.533,1.972.621,1.95,0H0V2.593Z" transform="translate(3.929 4.713)" fill="#007896"/>
      </g>
    </g>
    <g id="Group_11636" data-name="Group 11636" transform="translate(-5386.961 -1399.43) rotate(24)" opacity="0.55">
      <g id="Group_11603" data-name="Group 11603" transform="translate(477.094 -12110.644) rotate(-43)">
        <g transform="matrix(0.95, 0.33, -0.33, 0.95, -2.55, -16.33)" filter="url(#Path_5740)">
          <path id="Path_5740-2" data-name="Path 5740" d="M9.9,36.643A18.678,18.678,0,0,1,2.85,10.188,21.156,21.156,0,0,1,30.6,2.375a18.679,18.679,0,0,1,7.047,26.454A21.157,21.157,0,0,1,9.9,36.643Z" transform="matrix(-0.68, -0.73, 0.73, -0.68, 40.51, 59.23)" fill="#fff"/>
        </g>
        <path id="Path_5741" data-name="Path 5741" d="M0,0,18.585,1.987,11.311,14.03Z" transform="matrix(-0.407, -0.914, 0.914, -0.407, 24.002, 54.572)" fill="#fff"/>
      </g>
      <g id="Group_11626" data-name="Group 11626" transform="translate(495.693 -12112.149) rotate(-43)">
        <g id="Group_11624" data-name="Group 11624" transform="translate(0 0)">
          <path id="Path_5819" data-name="Path 5819" d="M16.446,18.208,0,17.77,6.42,0,9.066.07ZM1.1,17.033l14.208.378L8.557.824,6.97.781Z" transform="translate(3.475 8.476)" fill="#284664"/>
          <path id="Path_5838" data-name="Path 5838" d="M0,0,4.119.11l.02.767L.02.767Z" transform="translate(9.214 11.1)" fill="#284664"/>
          <path id="Path_5839" data-name="Path 5839" d="M0,0,8.3.221l.02.766L.02.766Z" transform="translate(7.241 16.563)" fill="#284664"/>
          <path id="Path_5840" data-name="Path 5840" d="M.078,0l.56,0L.56,15.285l-.56,0Z" transform="matrix(0.607, -0.795, 0.795, 0.607, 7.032, 17.23)" fill="#284664"/>
          <path id="Path_5820" data-name="Path 5820" d="M.365,9.175,0,8.71,11.53,0l.365.465Z" transform="translate(3.841 16.935)" fill="#284664"/>
          <path id="Path_5848" data-name="Path 5848" d="M.009,0H.57L.561,8.507H0Z" transform="matrix(0.667, -0.745, 0.745, 0.667, 9.031, 11.698)" fill="#284664"/>
          <path id="Path_5841" data-name="Path 5841" d="M0,0,8.111.042l0,.591L0,.591Z" transform="translate(7.052 16.725) rotate(-41.577)" fill="#284664"/>
          <g id="Group_11623" data-name="Group 11623" transform="translate(6.626 3.861)">
            <path id="Path_5821" data-name="Path 5821" d="M14.65,11.692l.961-1.42L.961,0,0,1.421Z" transform="translate(0 0)" fill="#284664"/>
            <path id="Path_5822" data-name="Path 5822" d="M1.172,4.664,2.937,2.055,0,0Z" transform="translate(12.674 8.217)" fill="#284664"/>
          </g>
          <path id="Path_5842" data-name="Path 5842" d="M0,0,.384.01.8,15.5l-.384-.01Z" transform="translate(1.057 10.321)" fill="#284664"/>
          <path id="Path_5823" data-name="Path 5823" d="M1.57,1.139c.016.617-.322,1.108-.755,1.1S.017,1.715,0,1.1.321-.011.755,0,1.553.522,1.57,1.139Z" transform="translate(0.571 14.983)" fill="#284664"/>
          <path id="Path_5843" data-name="Path 5843" d="M0,0,1.57.042l.092,3.45L.092,3.45Z" transform="translate(0.739 22.343)" fill="#284664"/>
          <path id="Path_5844" data-name="Path 5844" d="M0,0,.384.01.592,7.774l-.384-.01Z" transform="translate(20.381 16.273)" fill="#284664"/>
          <path id="Path_5845" data-name="Path 5845" d="M0,0,3.991.106l.092,3.45L.092,3.45Z" transform="translate(19.173 23.216)" fill="#284664"/>
          <path id="Path_5846" data-name="Path 5846" d="M0,0,23.231.619l.031,1.15L.031,1.15Z" transform="translate(0 25.196)" fill="#284664"/>
          <path id="Path_5824" data-name="Path 5824" d="M4.143,0,1.594,3.768A9.579,9.579,0,0,0,.076,10.321c.026-.006.337.018.361.012a8.611,8.611,0,0,0,5.2-3.79L8.16,2.809Z" transform="translate(0.998 0)" fill="#284664"/>
          <path id="Path_5847" data-name="Path 5847" d="M0,0,.384.01.651,9.993l-.384-.01Z" transform="translate(21.087 14.816)" fill="#284664"/>
        </g>
        <g id="Group_11625" data-name="Group 11625" transform="translate(1.961 1.34)">
          <path id="Path_5825" data-name="Path 5825" d="M3.863,4.639A7.929,7.929,0,0,1,0,7.818,8.56,8.56,0,0,1,1.438,2.992L3.462,0l2.4,1.679Z" fill="#00647d"/>
          <path id="Path_5826" data-name="Path 5826" d="M1.107.566A.517.517,0,0,1,.569,1.1.589.589,0,0,1,0,.537.518.518,0,0,1,.539,0,.589.589,0,0,1,1.107.566Z" transform="translate(18.668 22.552)" fill="#00647d"/>
        </g>
      </g>
      <path id="Path_5827" data-name="Path 5827" d="M.865,1.677A.9.9,0,0,1,0,.816.789.789,0,0,1,.82,0a.9.9,0,0,1,.864.86A.789.789,0,0,1,.865,1.677ZM.825.192A.609.609,0,0,0,.192.821a.693.693,0,0,0,.667.665.609.609,0,0,0,.632-.63A.692.692,0,0,0,.825.192Z" transform="translate(526.668 -12108.758) rotate(-43)" fill="#077c8b"/>
    </g>
    <g id="Group_11634" data-name="Group 11634" transform="translate(10399.065 -18408.588) rotate(-123)" opacity="0.55">
      <g id="Group_11601" data-name="Group 11601" transform="translate(443.789 -12009.383) rotate(-43)">
        <g transform="matrix(-0.97, 0.24, -0.24, -0.97, 125.47, 13.66)" filter="url(#Path_5736)">
          <path id="Path_5736-2" data-name="Path 5736" d="M0,9.765A9.765,9.765,0,1,1,9.765,19.53,9.765,9.765,0,0,1,0,9.765Z" transform="translate(119.46 39.53) rotate(-166)" fill="#fff"/>
        </g>
        <path id="Path_5737" data-name="Path 5737" d="M3.431,0,6.863,8.39H0Z" transform="translate(6.333)" fill="#fff"/>
      </g>
      <g id="Group_11629" data-name="Group 11629" transform="translate(452.461 -12004.739) rotate(-43)">
        <g id="Group_11627" data-name="Group 11627" transform="translate(0.609 0)">
          <rect id="Rectangle_2013" data-name="Rectangle 2013" width="11.83" height="2.001" transform="translate(0 4.755)" fill="#284664"/>
          <path id="Path_5828" data-name="Path 5828" d="M5.207,0H1.736L0,1.657V4.379L1.736,6.351H5.207L6.943,4.379V1.657Z" transform="translate(2.415 2.841)" fill="#284664"/>
          <rect id="Rectangle_2014" data-name="Rectangle 2014" width="5.365" height="0.947" transform="translate(3.243 0)" fill="#284664"/>
          <rect id="Rectangle_2015" data-name="Rectangle 2015" width="1.815" height="1.065" transform="translate(4.979 1.776)" fill="#284664"/>
        </g>
        <g id="Group_11628" data-name="Group 11628" transform="translate(0 0.789)">
          <rect id="Rectangle_2016" data-name="Rectangle 2016" width="0.609" height="3.335" transform="translate(0 3.357)" fill="#007896"/>
          <rect id="Rectangle_2017" data-name="Rectangle 2017" width="0.612" height="1.203" transform="translate(6.278 0)" fill="#007896"/>
          <rect id="Rectangle_2018" data-name="Rectangle 2018" width="0.609" height="3.335" transform="translate(12.439 3.357)" fill="#007896"/>
          <path id="Path_5829" data-name="Path 5829" d="M0,0H1.736L3.472,1.657V4.379L1.736,6.351H0Z" transform="translate(6.494 2.051)" fill="#007896"/>
        </g>
      </g>
    </g>
    <g id="Group_11635" data-name="Group 11635" transform="translate(8883.035 -3943.464) rotate(-49)" opacity="0.55">
      <g id="Group_11602" data-name="Group 11602" transform="translate(480.777 -12050.396) rotate(-43)">
        <g transform="matrix(-0.03, 1, -1, -0.03, 76.26, -134.32)" filter="url(#Path_5738)">
          <path id="Path_5738-2" data-name="Path 5738" d="M2.194,24.459A16.3,16.3,0,0,1,8.235,2.105,16.547,16.547,0,0,1,30.671,8.383a16.3,16.3,0,0,1-6.039,22.354A16.548,16.548,0,0,1,2.194,24.459Z" transform="translate(140.95 71.38) rotate(-92)" fill="#fff"/>
        </g>
        <path id="Path_5739" data-name="Path 5739" d="M0,0,12.048,9.475,2.04,15.125Z" transform="translate(4.712 0)" fill="#fff"/>
      </g>
      <g id="Group_11631" data-name="Group 11631" transform="translate(490.429 -12048.632) rotate(-43)">
        <g id="Group_11630" data-name="Group 11630" transform="translate(3.304 0)">
          <path id="Path_5837" data-name="Path 5837" d="M0,0,2.525,0l.018,15.355-2.525,0Z" transform="matrix(0.757, -0.653, 0.653, 0.757, 4.202, 6.228)" fill="#646464"/>
          <path id="Path_5830" data-name="Path 5830" d="M5.813,1.121a3.307,3.307,0,0,1-.32,4.668A3.324,3.324,0,0,1,.817,5.421,3.3,3.3,0,0,1,.979.9l1.2,3.143c.323.845,3.093-.186,2.771-1.032L3.8,0A3.356,3.356,0,0,1,5.813,1.121Z" transform="translate(0)" fill="#646464"/>
          <path id="Path_5831" data-name="Path 5831" d="M.854.6A2.5,2.5,0,0,1,4.374.875a2.489,2.489,0,0,1-.12,3.4l-.9-2.364c-.243-.637-2.328.142-2.086.776L2.13,4.955A2.518,2.518,0,0,1,.614,4.111,2.49,2.49,0,0,1,.854.6Z" transform="translate(13.701 15.669)" fill="#646464"/>
        </g>
        <path id="Path_5832" data-name="Path 5832" d="M19.2,7.774l-.3-.337a1.057,1.057,0,0,0-.576-.341.72.72,0,0,0-.163-.028,1.064,1.064,0,0,0-.183,0,.054.054,0,0,0-.02,0l.163-.136c.038-.032.078-.067.117-.1a1.071,1.071,0,0,0,.094-1.477l-.287-.345a1.078,1.078,0,0,0-1.108-.357L17.3,4.39a1.088,1.088,0,0,0,.267-.3,1.071,1.071,0,0,0-.071-1.2l-.273-.359a1.107,1.107,0,0,0-.714-.417,1.077,1.077,0,0,0-.472.04,1.145,1.145,0,0,0-.321.165l.034-.027a1.022,1.022,0,0,0,.278-.315s0,0,0,0a1.092,1.092,0,0,0,.132-.391,1.08,1.08,0,0,0-.217-.8L15.67.428a1.074,1.074,0,0,0-1.5-.212L12.413,1.548l-.017.011a1.335,1.335,0,0,0-.308.173l-3.8,2.96a2.644,2.644,0,0,0-.964,1.552L7.075,7.46a2.641,2.641,0,0,1-.763,1.378L0,14.865,5.394,20.5,11.8,14.381a2.654,2.654,0,0,1,1.173-.65l.8-.2a2.646,2.646,0,0,0,1.071-.557l1.1-.946.019.021L18.44,9.873l0,0,.052-.044a.106.106,0,0,1,.011-.011l.6-.525A1.073,1.073,0,0,0,19.2,7.774Z" transform="translate(0 4.169)" fill="#fed9ae"/>
        <path id="Path_5833" data-name="Path 5833" d="M2.222.177c-.187.157-.388.329-.591.493-.187.158-.371.32-.553.464-.016.014-.035.027-.051.038C.865,1.294.7,1.4.56,1.491a4.9,4.9,0,0,1-.544.3L.009,1.778h0L0,1.769a4.642,4.642,0,0,1,.427-.448C.553,1.2.7,1.076.863.945L.909.911C1.093.775,1.3.639,1.5.5c.246-.173.492-.346.714-.5a1.021,1.021,0,0,1-.278.315L1.9.342A1.146,1.146,0,0,1,2.222.177Z" transform="translate(13.812 6.143)" fill="#f0be96"/>
        <path id="Path_5834" data-name="Path 5834" d="M2.875,17.813l6.408-6.119a2.655,2.655,0,0,1,1.173-.65l.8-.2a2.645,2.645,0,0,0,1.071-.557l1.1-.946.019.021,2.481-2.173,0,0,.052-.044a.1.1,0,0,1,.011-.011l.6-.525a1.073,1.073,0,0,0,.091-1.515l-.3-.337a1.057,1.057,0,0,0-.576-.341.72.72,0,0,0-.163-.028,1.06,1.06,0,0,0-.183,0,.055.055,0,0,0-.02,0l.163-.136c.038-.032.078-.067.117-.1a1.071,1.071,0,0,0,.094-1.477l-.287-.345a1.078,1.078,0,0,0-1.108-.357l.356-.269a1.086,1.086,0,0,0,.267-.3A1.071,1.071,0,0,0,14.974.2L14.821,0,0,14.81Z" transform="translate(2.519 6.856)" fill="#ffe1b9"/>
        <path id="Path_5835" data-name="Path 5835" d="M1.788,0a1.087,1.087,0,0,1-.267.3L1.165.568A1.088,1.088,0,0,1,1.444.532c-.122.106-.245.21-.363.3a5.573,5.573,0,0,1-.465.322l-.054.034a4.474,4.474,0,0,1-.546.3L0,1.47s.016-.018.045-.054.107-.122.2-.215a0,0,0,0,1,0,0C.3,1.145.361,1.087.43,1.023.445,1.007.465.991.483.975.606.86.75.737.908.615,1.093.477,1.3.343,1.5.2,1.6.133,1.691.067,1.788,0Z" transform="translate(15.776 8.26)" fill="#f0be96"/>
        <path id="Path_5836" data-name="Path 5836" d="M.739.03C.677.069.619.107.562.141.485.191.412.234.345.272c-.2.111-.326.17-.326.17L0,.42S.091.308.251.145C.294.1.339.057.393.006A1.061,1.061,0,0,1,.576,0,.722.722,0,0,1,.739.03Z" transform="translate(17.587 11.235)" fill="#f0be96"/>
      </g>
    </g>
    <g id="Group_11585" data-name="Group 11585" transform="translate(-253 -13453.16)">
      <g id="Group_11569" data-name="Group 11569" transform="translate(298.839 1227.099)">
        <path id="Path_5525" data-name="Path 5525" d="M302.894,189.509l5.7,38.2-2.622-1.2-7.138-32.4,4.375,33.6-2.266-2.478-7.663-38.548Z" transform="translate(-263.588 -147.418)" fill="#ce5959"/>
        <path id="Path_5526" data-name="Path 5526" d="M287.864,128.578c-.286-.215-4.608-3.384-4.608-3.384l-13.484-8.915-6.153-6.425-1.141,1.276,5.077,7.248,7.616,5.767V142.2s7.467,3.192,9.618,2.141C286.362,138.518,287.864,128.578,287.864,128.578Z" transform="translate(-245.483 -102.251)" fill="#ffb756"/>
        <path id="Path_5527" data-name="Path 5527" d="M308.656,146.011l-.678-.5-1.654-1.094-1.065.1s-1.313,1.72-.408,2.218A3.792,3.792,0,0,0,308.656,146.011Z" transform="translate(-270.206 -122.572)" fill="#ea9632"/>
        <path id="Path_5528" data-name="Path 5528" d="M304.911,114.454a1.531,1.531,0,0,1,.422-2.46c1.687-1.125,3.936,1.054,2.671.773,2.038,1.476,3.865,5.412,3.865,5.412l-4.482,5.582Z" transform="translate(-270.16 -103.318)" fill="#0b4854"/>
        <path id="Path_5529" data-name="Path 5529" d="M300.047,118.426s-3.3,4.568-3.866,7.871c1.757.844,3.866,2.038,3.866,2.038l.422,2.6a2.282,2.282,0,0,0,2.6-.7,4.872,4.872,0,0,1-.807-1.757l2.634-7.52A9.3,9.3,0,0,0,300.047,118.426Z" transform="translate(-265.296 -107.29)" fill="#ffc88f"/>
        <g id="Group_11567" data-name="Group 11567" transform="translate(0 0)">
          <g id="Group_11566" data-name="Group 11566">
            <path id="Path_5530" data-name="Path 5530" d="M233.655,112.863,221.241,96.331l6.207-4.924h12.93l6.058,4.749Z" transform="translate(-221.241 -91.406)" fill="#ce5959"/>
            <path id="Path_5531" data-name="Path 5531" d="M227.448,91.406l-.157,4.924,6.364,16.532L221.241,96.331Z" transform="translate(-221.241 -91.406)" fill="#e27171"/>
            <path id="Path_5532" data-name="Path 5532" d="M251.361,96.331v16.532l6.829-16.532-.106-4.924Z" transform="translate(-238.948 -91.406)" fill="#e27171"/>
            <path id="Path_5533" data-name="Path 5533" d="M221.241,96.331h12.414l-6.207-4.924Z" transform="translate(-221.241 -91.406)" fill="#fca7a7" opacity="0.5"/>
            <path id="Path_5534" data-name="Path 5534" d="M251.361,96.331l6.723-4.924,6.058,4.749Z" transform="translate(-238.948 -91.406)" fill="#fca7a7" opacity="0.5"/>
          </g>
          <path id="Path_5535" data-name="Path 5535" d="M312.362,130.887s1.546-.914,1.757.211-1.546,3.022-2.249,1.546" transform="translate(-274.519 -114.41)" fill="#ffc88f"/>
        </g>
        <path id="Path_5536" data-name="Path 5536" d="M283.66,146.046l-14.8-2.091-10.607-4.631-.978,1.708,11.37,5.568,14.159,3.307" transform="translate(-242.423 -119.575)" fill="#ffb756"/>
        <path id="Path_5537" data-name="Path 5537" d="M257.272,143.468q2.869,1.338,5.724,2.7c1.907.9,3.8,1.839,5.7,2.757l-.026-.009,7.075,1.674q3.533.854,7.057,1.751-3.557-.754-7.1-1.557l-7.084-1.633-.014,0-.012-.006c-1.89-.938-3.788-1.86-5.672-2.812S259.149,144.432,257.272,143.468Z" transform="translate(-242.423 -122.012)" fill="#ea9632"/>
        <path id="Path_5538" data-name="Path 5538" d="M285.055,146.046q-3.712-.445-7.416-.943c-2.468-.344-4.938-.669-7.4-1.031l-.017,0-.014-.006c-1.764-.78-3.533-1.549-5.291-2.344s-3.516-1.589-5.269-2.395c1.782.738,3.565,1.477,5.338,2.236s3.545,1.523,5.316,2.287l-.03-.009c2.469.335,4.933.707,7.4,1.06Q281.364,145.452,285.055,146.046Z" transform="translate(-243.818 -119.576)" fill="#ea9632"/>
        <path id="Path_5539" data-name="Path 5539" d="M250.926,133.588l-1.053-.738s-.334-1.43-.572-2.908-.668-.143-.763.238a3.586,3.586,0,0,0,0,1.049s-1.478-1.164-2.431-1.967-1.253,1.285-.824,2.209,2.016,2.72,3.97,2.526l1.088.612Z" transform="translate(-235.262 -113.555)" fill="#ffc88f"/>
        <g id="Group_11568" data-name="Group 11568" transform="translate(31.788 15.095)">
          <path id="Path_5540" data-name="Path 5540" d="M300.878,128.033c-.245.521-.521,1.023-.811,1.517l-.031.053-.067,0c-.381.009-.762.009-1.144,0l.059-.222c.266.157.529.32.787.49s.516.342.766.528q-.431-.179-.845-.387c-.279-.134-.553-.277-.825-.424l-.4-.215.455-.007c.381-.006.762-.005,1.144,0l-.1.054C300.189,128.951,300.518,128.482,300.878,128.033Z" transform="translate(-298.371 -128.033)" fill="#ffa967"/>
          <path id="Path_5541" data-name="Path 5541" d="M304.287,135.1a3.591,3.591,0,0,1-.768.463,3.485,3.485,0,0,1-.866.27,1.725,1.725,0,0,1-.925-.072.7.7,0,0,1-.21-.112.631.631,0,0,1-.18-.152,1.118,1.118,0,0,1-.222-.4,1.184,1.184,0,0,0,.672.481,2.013,2.013,0,0,0,.826.009,6.693,6.693,0,0,0,.837-.2C303.73,135.3,304.005,135.2,304.287,135.1Z" transform="translate(-299.985 -132.186)" fill="#ffa967"/>
          <path id="Path_5542" data-name="Path 5542" d="M313.551,132.488a.241.241,0,0,0-.254-.193.7.7,0,0,0-.318.145,6.064,6.064,0,0,0-.594.478l-.029-.2a1.319,1.319,0,0,1,.27.184.432.432,0,0,1,.152.337.4.4,0,0,1-.191.291.857.857,0,0,1-.285.122,1.305,1.305,0,0,0,.214-.2.307.307,0,0,0,.09-.214.313.313,0,0,0-.125-.168,2.041,2.041,0,0,0-.233-.134l-.151-.08.122-.117a2.768,2.768,0,0,1,.656-.485.838.838,0,0,1,.426-.094A.288.288,0,0,1,313.551,132.488Z" transform="translate(-306.441 -130.46)" fill="#ffa967"/>
        </g>
        <path id="Path_5543" data-name="Path 5543" d="M306.425,127.908c-.053.143-.172.231-.266.2s-.126-.179-.073-.322.173-.231.266-.2S306.478,127.765,306.425,127.908Z" transform="translate(-271.104 -112.671)" fill="#222c3c"/>
        <path id="Path_5544" data-name="Path 5544" d="M303.731,126.669c-.054.143-.173.231-.266.2s-.126-.179-.073-.322.172-.231.266-.2S303.784,126.526,303.731,126.669Z" transform="translate(-269.52 -111.942)" fill="#222c3c"/>
        <path id="Path_5545" data-name="Path 5545" d="M306.882,125.125a.818.818,0,0,1,.95.763" transform="translate(-271.587 -111.224)" fill="#222c3c"/>
        <path id="Path_5546" data-name="Path 5546" d="M304.447,124.53a.543.543,0,0,0-.888-.123" transform="translate(-269.633 -110.703)" fill="#222c3c"/>
      </g>
      <path id="Path_5547" data-name="Path 5547" d="M308.848,355.64s-.533-5.434,1.68-7.933.009,5.3.009,5.3,2.963-12.847,6.394-12.7-5.525,15.336-5.525,15.336Z" transform="translate(26.13 989.375)" fill="#94a4a7"/>
      <g id="Group_11573" data-name="Group 11573" transform="translate(268.806 1252.715)">
        <g id="Group_11571" data-name="Group 11571">
          <path id="Path_5548" data-name="Path 5548" d="M304.238,246.972,285.1,235.434l-1.882,28.08Z" transform="translate(-227.645 -201.691)" fill="#c7d9d9"/>
          <path id="Path_5549" data-name="Path 5549" d="M148.507,267.995l14.5-8.374s.274,17.658,0,17.511S148.507,267.995,148.507,267.995Z" transform="translate(-148.451 -215.91)" fill="#c7d9d9"/>
          <g id="Group_11570" data-name="Group 11570">
            <path id="Path_5550" data-name="Path 5550" d="M179.589,189.53l.261,15.211,15.3-6.985Z" transform="translate(-166.723 -174.706)" fill="#899f9f"/>
            <path id="Path_5551" data-name="Path 5551" d="M161.5,226.438l-.075,29.882-13.013-7.929-.038,15.2,38.212,22.717.112-44.732Z" transform="translate(-148.371 -196.403)" fill="#899f9f"/>
            <path id="Path_5552" data-name="Path 5552" d="M260.307,257.917l.056-22.366L241.2,246.932l-.112,44.732,38.325-22.525.055-22Z" transform="translate(-202.876 -201.76)" fill="#899f9f"/>
            <path id="Path_5553" data-name="Path 5553" d="M254.966,180.921l-.178,22.515L231.6,192.71Z" transform="translate(-197.301 -169.645)" fill="#899f9f"/>
            <path id="Path_5554" data-name="Path 5554" d="M224.388,164.836,205.16,153.56l-25.572,14.825,12.962,7.458-12.7,7.753h0l25.2,15.137,19.163-11.381-19.106-11.3Z" transform="translate(-166.723 -153.56)" fill="#c7d9d9"/>
          </g>
        </g>
        <g id="Group_11572" data-name="Group 11572" transform="translate(12.999 9.476)">
          <path id="Path_5555" data-name="Path 5555" d="M222.709,264.243l-.081-.043-13-6.877V244.449h.33v12.675l12.746,6.742,19.055-11.128.167.285Z" transform="translate(-197.379 -216.467)" fill="#d5e1e3"/>
          <path id="Path_5556" data-name="Path 5556" d="M209.988,222.782l-.176-.279,12.543-7.915-12.175-6.947.163-.287L223,214.573Z" transform="translate(-197.489 -194.66)" fill="#d5e1e3"/>
          <path id="Path_5557" data-name="Path 5557" d="M205.571,302.418l-.085-.051L187.328,291.52V273.769l-7.416-4.851.18-.276,7.565,4.949v17.743l17.913,10.7,9.634-5.848V272.359h.33v24.012l-.079.048Z" transform="translate(-179.912 -230.689)" fill="#d5e1e3"/>
          <path id="Path_5558" data-name="Path 5558" d="M286.491,306.2h-.33V291.9l-20.25,11.409-.162-.287,20.742-11.686Z" transform="translate(-230.372 -244.03)" fill="#d5e1e3"/>
          <path id="Path_5559" data-name="Path 5559" d="M226.112,195.528h-.33V183.737l-11.454-6.8-16.093,9.745v5.881h-.33V186.5l16.421-9.943,11.785,7Z" transform="translate(-190.49 -176.553)" fill="#d5e1e3"/>
        </g>
      </g>
      <path id="Path_5560" data-name="Path 5560" d="M441.89,335.783s-5-8.237-3.948-12.091,3.721,5.831,3.721,5.831.349-19.581,3.732-22.786,0,21.245,0,21.245,1.483-9.763,4.8-8.361-2.732,16.21-2.732,16.21Z" transform="translate(-49.708 1009.277)" fill="#94a4a7"/>
      <g id="Group_11576" data-name="Group 11576" transform="translate(331.684 1263.357)">
        <path id="Path_5561" data-name="Path 5561" d="M392.457,251.946s.607-.874-1.07-3.362-3.578,1.49-3.578,1.49l3.572,2.781Z" transform="translate(-352.006 -219.582)" fill="#ffc88f"/>
        <g id="Group_11574" data-name="Group 11574">
          <path id="Path_5562" data-name="Path 5562" d="M352.754,214.675,369.9,201.343l2.872,21.516-17.05,14.014Z" transform="translate(-331.398 -192.292)" fill="#899f9f"/>
          <path id="Path_5563" data-name="Path 5563" d="M322.292,220.91l-21.356-8.962,3,22.444,21.323,8.716Z" transform="translate(-300.936 -198.526)" fill="#899f9f"/>
          <path id="Path_5564" data-name="Path 5564" d="M339.433,188.433l-20.13-9.051L300.936,192.8l21.356,8.962Z" transform="translate(-300.936 -179.382)" fill="#c7d9d9"/>
        </g>
        <g id="Group_11575" data-name="Group 11575" transform="translate(26.252 32.364)">
          <path id="Path_5565" data-name="Path 5565" d="M391.366,280.3l-3.343.6-12.472-3.287-2.959-10.206-1.546.389,1.278,11.374,10.96,4.561s-2.622,5.043.874,4.505c.739,3.766,1.883,8.539,1.883,8.539l6.471-2.555,1-15.051-4.694-10.894L382.6,257.909l-1.076.91,4.873,11.042Z" transform="translate(-368.404 -257.909)" fill="#8ad9fc"/>
          <path id="Path_5566" data-name="Path 5566" d="M408.858,286.1s-1.282,3.364-3.57,1.728c-.549,1.476-1.19,2.757-.915,3.581s4.027,2.929,4.027,2.929l-.824,3.021s2.319,1.1,2.777-.732a6.668,6.668,0,0,0,0-3.112l2.715-5.686S411.329,285.187,408.858,286.1Z" transform="translate(-387.957 -274.369)" fill="#ffc88f"/>
          <path id="Path_5567" data-name="Path 5567" d="M414.883,284.092s-.236-2.152.481-3.138c5.2.089,8.337,2.457,9.055,3.963,0,0-.371,12.981-.909,17.195,0,0-4.193,2.619-7.377,2.35.134-5.356.571-11.562.528-14.79-.028-2.121.453-2.366.453-2.366A5.512,5.512,0,0,1,414.883,284.092Z" transform="translate(-394.152 -271.456)" fill="#ed7070"/>
          <path id="Path_5568" data-name="Path 5568" d="M417.844,296.609s1.922-.95,2.014.532-1.831,2.165-2.288.954" transform="translate(-395.754 -280.483)" fill="#ffc88f"/>
          <path id="Path_5569" data-name="Path 5569" d="M370.648,274.31s-.629-1.143,0-1.66l1.031-.847a7.587,7.587,0,0,1-.29-2.406c.127-.942,1.68-.11,1.921,1.065s-1.471,2.949-1.471,2.949l.355.509Z" transform="translate(-368.006 -264.423)" fill="#ffc88f"/>
          <path id="Path_5570" data-name="Path 5570" d="M387.289,348.089a48.61,48.61,0,0,0-14.12-2.893l3.482,17.992,1.406,1.124-.412-14.261s8.357,5.638,13.081,4.4a53.437,53.437,0,0,0,.743,9.857l15.451-2.453.844-1.617h-12.63s7.115-12.12-1.372-14.708Z" transform="translate(-369.652 -309.222)" fill="#343853"/>
          <path id="Path_5571" data-name="Path 5571" d="M371.634,388.849c-.442-.07-7,2.972-7,2.972l8.466-.551-.061-1.3Z" transform="translate(-364.635 -334.884)" fill="#ed7070"/>
        </g>
        <path id="Path_5572" data-name="Path 5572" d="M419.791,298.218a.674.674,0,0,0-.3-.3.409.409,0,0,0-.352.046,3.227,3.227,0,0,0-.641.559l-.055-.176a1.125,1.125,0,0,1,.212.093c.059.047.167.072.176.23-.035.142-.133.147-.2.178a.857.857,0,0,1-.219.041,2.066,2.066,0,0,0,.182-.114c.053-.035.109-.1.094-.111a.34.34,0,0,0-.112-.055c-.06-.019-.128-.032-.193-.05l-.157-.044.1-.132a1.929,1.929,0,0,1,.716-.622.536.536,0,0,1,.517.03A.565.565,0,0,1,419.791,298.218Z" transform="translate(-369.89 -248.945)" fill="#ffa967"/>
        <path id="Path_5573" data-name="Path 5573" d="M407.184,295.818a1.23,1.23,0,0,0,.244.488.783.783,0,0,0,.421.243,1.843,1.843,0,0,0,.528.037c.185-.009.372-.04.572-.049-.083.054-.172.094-.26.142s-.187.063-.283.1a1.262,1.262,0,0,1-.616.015.794.794,0,0,1-.517-.375A.812.812,0,0,1,407.184,295.818Z" transform="translate(-363.383 -247.831)" fill="#ffa967"/>
        <path id="Path_5574" data-name="Path 5574" d="M406.855,291.96a.252.252,0,0,1,.115.037.124.124,0,0,1,.054.06.122.122,0,0,1,0,.081.252.252,0,0,1-.061.1.247.247,0,0,1-.116-.037.119.119,0,0,1-.054-.061.123.123,0,0,1,0-.081A.251.251,0,0,1,406.855,291.96Z" transform="translate(-363.162 -245.563)" fill="#ffa967"/>
        <path id="Path_5575" data-name="Path 5575" d="M412.36,292.183c-.1.116-.218.173-.274.127s-.023-.177.072-.293.218-.173.274-.127S412.456,292.067,412.36,292.183Z" transform="translate(-366.261 -245.512)" fill="#222c3c"/>
        <path id="Path_5576" data-name="Path 5576" d="M414.038,290.037s.654-.065.483.858" transform="translate(-367.425 -244.431)" fill="#0b4854"/>
      </g>
      <path id="Path_5577" data-name="Path 5577" d="M453.522,383.32l1.246,3.169-2.324,1.132h3.818l-.332-5.918h-1.565Z" transform="translate(-58.319 965.037)" fill="#ed7070"/>
      <g id="Group_11580" data-name="Group 11580" transform="translate(220 1267.949)">
        <g id="Group_11577" data-name="Group 11577" transform="translate(31.767)">
          <path id="Path_5578" data-name="Path 5578" d="M120.757,215.4l-12.349-8.363-1.381,30.081,12.361,8.1Z" transform="translate(-107.026 -200.235)" fill="#899f9f"/>
          <path id="Path_5579" data-name="Path 5579" d="M137.02,246.9l6.458-3.344,1.048-22.835,6.688-3.5.337-7.336-13.161,7.192" transform="translate(-124.659 -201.905)" fill="#899f9f"/>
          <path id="Path_5580" data-name="Path 5580" d="M110.376,197.332l13.046-6.807,12.465,7.978-13.161,7.192Z" transform="translate(-108.996 -190.525)" fill="#c7d9d9"/>
        </g>
        <g id="Group_11579" data-name="Group 11579" transform="translate(0 4.278)">
          <path id="Path_5581" data-name="Path 5581" d="M87.465,222.887l.449,3.666,1.721,3.217-1.8-.823s.075,1.678.224,3.233L85,230.966l.524,3.291-1.945-1.2V222.887Z" transform="translate(-61.473 -213.827)" fill="#ffc88f"/>
          <path id="Path_5582" data-name="Path 5582" d="M101.279,203.043l.807-.263a9.14,9.14,0,0,1,3.232-1.856c1.3-.193,4.672,1.21,3.14,1.856a9.684,9.684,0,0,1-3.492.585s.429.687.735,1.165.337,1.4-.383.724-2.006-1.713-2.006-1.713l-1.749.457Z" transform="translate(-71.881 -200.905)" fill="#ffc88f"/>
          <path id="Path_5583" data-name="Path 5583" d="M76.461,223.063c0-.267-1.323-8.342-1.323-8.342l8.961-7.693-.341-1.149L71.553,213,72.9,223.649l-1.422,22.413h9.1l1.308-12.173,3.926,5.8,11.126-7.542-.658-1.674-9.33,6.03-3.926-9.387Z" transform="translate(-54.359 -203.829)" fill="#ce5959"/>
          <path id="Path_5584" data-name="Path 5584" d="M58.63,303.38l-3.881,32.372-1.7,1.524-.127-30.624-4.949,13.676L36.1,332.585H34.143l11.193-13.534,4.192-15.671Z" transform="translate(-32.414 -261.147)" fill="#343853"/>
          <path id="Path_5585" data-name="Path 5585" d="M81.687,226.7l-1.323-8.042s3.394-2.066,4.8-1.992,1.278,2.252.418,2.564a10.861,10.861,0,0,0-2.926.9Z" transform="translate(-59.586 -210.167)" fill="#0b4854"/>
          <path id="Path_5586" data-name="Path 5586" d="M84.126,229.709s-.923-1.187-1.29-.339.479,3.29,1.29,2.183" transform="translate(-60.987 -217.459)" fill="#ffc88f"/>
          <path id="Path_5587" data-name="Path 5587" d="M131.657,260.056s1.365-2.823,1.712-3.588.7.228.348,1.3l-.348,1.068.7.07s1.692-1.58,2.62-1.138-.742,2.737-1.576,3.363a5.946,5.946,0,0,1-2.793.6Z" transform="translate(-89.739 -233.41)" fill="#ffc88f"/>
          <path id="Path_5588" data-name="Path 5588" d="M81.716,381.927l10.848,2.349h-12.4l-.144-.824Z" transform="translate(-59.38 -307.322)" fill="#ce5959"/>
          <path id="Path_5589" data-name="Path 5589" d="M33.633,374.244l1.351,4.341,4.506,1.174H33.633l-3.685-4.644,1.729-.871Z" transform="translate(-29.947 -302.805)" fill="#ce5959"/>
          <g id="Group_11578" data-name="Group 11578" transform="translate(22.174 12.129)">
            <path id="Path_5590" data-name="Path 5590" d="M88.541,238.876a1.085,1.085,0,0,1-.528.267.87.87,0,0,1-.613-.1,1.115,1.115,0,0,1-.4-.47c-.035-.094-.068-.188-.1-.281s-.033-.194-.039-.291c.094.173.174.342.274.495a1.383,1.383,0,0,0,.364.371A1.218,1.218,0,0,0,88.541,238.876Z" transform="translate(-85.584 -234.839)" fill="#ffa967"/>
            <path id="Path_5591" data-name="Path 5591" d="M92.777,235.968a3.749,3.749,0,0,1-.739-.286l-.063-.032.013-.075a1.665,1.665,0,0,1,.178-.533.418.418,0,0,1,.236-.211c.147-.012.2.112.226.188-.069-.059-.154-.115-.2-.081a.335.335,0,0,0-.108.181,4.274,4.274,0,0,0-.138.493l-.051-.106A3.742,3.742,0,0,1,92.777,235.968Z" transform="translate(-88.585 -232.978)" fill="#ffa967"/>
            <path id="Path_5592" data-name="Path 5592" d="M83.75,230.668a.562.562,0,0,1,.08-.209.224.224,0,0,1,.228-.12.59.59,0,0,1,.348.334,3.146,3.146,0,0,1,.275.837l.025.12-.115-.011a.794.794,0,0,0-.154-.006c-.048.009-.069.014-.074.051a.614.614,0,0,0,.115.307.685.685,0,0,1-.136-.124.331.331,0,0,1-.091-.183c-.017-.092.082-.178.148-.19a.711.711,0,0,1,.2-.03l-.09.109c-.048-.134-.083-.272-.131-.4s-.091-.266-.144-.392a.606.606,0,0,0-.2-.3C83.948,230.421,83.823,230.552,83.75,230.668Z" transform="translate(-83.75 -230.335)" fill="#ffa967"/>
          </g>
          <path id="Path_5593" data-name="Path 5593" d="M91.811,230.42c0,.145-.068.263-.152.263s-.152-.117-.152-.263.068-.262.152-.262S91.811,230.275,91.811,230.42Z" transform="translate(-66.136 -218.102)" fill="#222c3c"/>
          <path id="Path_5594" data-name="Path 5594" d="M91,227.532a.606.606,0,0,0-1.048.22" transform="translate(-65.219 -216.423)" fill="#222c3c"/>
        </g>
      </g>
      <path id="Path_5595" data-name="Path 5595" d="M112.18,346.821s-5.724-5.959-5.2-12.743,5.2,8.637,5.2,8.637-5.933-19.067-3.785-24.263,6.592,24.263,6.592,24.263-.015-8.17,2.8-8.872-.658,10.7-.658,10.7,2.282-4.87,3.579-3.454-1.369,5.736-1.369,5.736Z" transform="translate(144.789 1002.581)" fill="#94a4a7"/>
      <g id="Group_11584" data-name="Group 11584" transform="translate(286.624 1218.16)">
        <g id="Group_11583" data-name="Group 11583" transform="translate(0 0)">
          <g id="Group_11581" data-name="Group 11581">
            <path id="Path_5597" data-name="Path 5597" d="M200.217,103.061a39.963,39.963,0,0,1-4.307.206,39.443,39.443,0,0,1-4.307-.206,39.444,39.444,0,0,1,4.307-.206A40.071,40.071,0,0,1,200.217,103.061Z" transform="translate(-191.603 -89.198)" fill="#c7d9d9"/>
            <path id="Path_5598" data-name="Path 5598" d="M201.864,88.866c-.885-.244-1.754-.53-2.621-.823s-1.726-.607-2.582-.926-1.707-.657-2.549-1.015l-1.262-.539c-.415-.194-.836-.374-1.247-.58.444.118.879.261,1.318.391l1.3.432c.868.289,1.725.607,2.582.927s1.707.657,2.548,1.016S201.039,88.463,201.864,88.866Z" transform="translate(-191.603 -78.691)" fill="#c7d9d9"/>
            <path id="Path_5599" data-name="Path 5599" d="M215.577,76.008c-1.293-.927-2.5-1.948-3.693-2.991s-2.343-2.129-3.42-3.3c1.293.926,2.5,1.947,3.693,2.991S214.5,74.838,215.577,76.008Z" transform="translate(-201.515 -69.717)" fill="#c7d9d9"/>
            <path id="Path_5600" data-name="Path 5600" d="M235.217,74.658a15.806,15.806,0,0,1-1.278-2.387,15.584,15.584,0,0,1-.9-2.554,17.785,17.785,0,0,1,2.179,4.941Z" transform="translate(-215.961 -69.717)" fill="#c7d9d9"/>
          </g>
          <g id="Group_11582" data-name="Group 11582" transform="translate(31.351)">
            <path id="Path_5601" data-name="Path 5601" d="M293.494,103.061a40.066,40.066,0,0,1,4.307-.206,39.45,39.45,0,0,1,4.307.206,39.448,39.448,0,0,1-4.307.206A39.958,39.958,0,0,1,293.494,103.061Z" transform="translate(-282.852 -89.198)" fill="#c7d9d9"/>
            <path id="Path_5602" data-name="Path 5602" d="M289.5,88.866c.825-.4,1.666-.764,2.509-1.119s1.695-.687,2.548-1.016,1.714-.638,2.582-.927l1.3-.432c.44-.13.874-.273,1.318-.391-.411.206-.832.386-1.247.58l-1.262.539c-.842.359-1.695.687-2.548,1.015s-1.714.637-2.582.926S290.383,88.622,289.5,88.866Z" transform="translate(-280.503 -78.691)" fill="#c7d9d9"/>
            <path id="Path_5603" data-name="Path 5603" d="M280.276,76.008c1.078-1.17,2.239-2.246,3.42-3.3s2.4-2.065,3.693-2.991c-1.077,1.17-2.238,2.247-3.42,3.3S281.569,75.081,280.276,76.008Z" transform="translate(-275.082 -69.717)" fill="#c7d9d9"/>
            <path id="Path_5604" data-name="Path 5604" d="M267.673,74.658a15.812,15.812,0,0,1,.9-2.554,15.621,15.621,0,0,1,1.278-2.387,17.8,17.8,0,0,1-2.179,4.941Z" transform="translate(-267.673 -69.717)" fill="#c7d9d9"/>
          </g>
        </g>
      </g>
    </g>
    <g id="Group_11642" data-name="Group 11642" transform="translate(-2641.38 -324.414) rotate(11)" opacity="0.69">
      <g id="Group_11604" data-name="Group 11604" transform="translate(449.339 -12170.174) rotate(-43)">
        <path id="Path_5742" data-name="Path 5742" d="M11.351,22.7A11.351,11.351,0,1,1,22.7,11.35,11.351,11.351,0,0,1,11.351,22.7Z" transform="translate(4.876 0)" fill="#fff"/>
        <path id="Path_5743" data-name="Path 5743" d="M0,3.989,9.752,0V7.978Z" transform="translate(0 7.362)" fill="#fff"/>
      </g>
      <g id="Group_11622" data-name="Group 11622" transform="translate(456.394 -12173.576) rotate(-43)">
        <g id="Group_11620" data-name="Group 11620" transform="translate(6.797 2.312)">
          <path id="Path_5799" data-name="Path 5799" d="M.623,0l.24,6.423H0L.239,0Z" transform="translate(4.539 5.463)" fill="#6e6e6e"/>
          <path id="Path_5800" data-name="Path 5800" d="M.041,0A2.357,2.357,0,0,1,.306.032C.388.046.486.064.6.092S.827.155.956.2s.267.1.408.157A3.556,3.556,0,0,1,1.8.573a4.765,4.765,0,0,1,.425.295c.141.107.286.213.433.314.295.2.592.4.865.6s.528.378.745.537c.435.318.72.538.72.538l-.041.07s-.333-.137-.825-.354c-.246-.11-.533-.237-.838-.378s-.628-.3-.951-.449c-.162-.077-.326-.149-.489-.218A4.847,4.847,0,0,1,1.373,1.3a3.568,3.568,0,0,1-.4-.266C.846.946.732.854.63.763S.436.586.358.5.213.347.16.284A2.457,2.457,0,0,1,0,.071Z" transform="translate(4.956 5.672)" fill="#d1d3d4"/>
          <path id="Path_5801" data-name="Path 5801" d="M4.983.071a2.276,2.276,0,0,1-.16.213c-.053.063-.118.14-.2.22s-.17.17-.273.259-.216.183-.34.275a3.532,3.532,0,0,1-.4.266,4.8,4.8,0,0,1-.468.221c-.163.069-.327.141-.488.218-.323.154-.644.312-.951.449s-.592.268-.838.378c-.493.217-.825.354-.825.354L0,2.854s.284-.22.719-.538c.217-.158.471-.344.746-.537s.57-.4.865-.6c.147-.1.292-.207.433-.314A4.768,4.768,0,0,1,3.188.573,3.5,3.5,0,0,1,3.62.356C3.761.295,3.9.242,4.028.2s.251-.079.36-.107S4.6.046,4.678.032A2.358,2.358,0,0,1,4.943,0Z" transform="translate(0.007 5.672)" fill="#d1d3d4"/>
          <path id="Path_5802" data-name="Path 5802" d="M.379,5.708a2.315,2.315,0,0,1-.1-.246C.246,5.384.213,5.289.183,5.181S.121,4.949.1,4.815s-.05-.279-.067-.433A3.6,3.6,0,0,1,0,3.9a4.917,4.917,0,0,1,.043-.515C.066,3.21.087,3.031.1,2.853.129,2.5.154,2.14.189,1.806S.254,1.159.282.891C.341.356.391,0,.391,0H.472s.048.357.1.892c.027.268.061.579.089.914S.722,2.5.75,2.854c.014.178.033.357.054.532A4.792,4.792,0,0,1,.846,3.9a3.59,3.59,0,0,1-.03.482c-.017.153-.042.3-.069.431s-.058.256-.089.365-.064.2-.093.282a2.437,2.437,0,0,1-.1.245Z" transform="translate(4.545 0)" fill="#d1d3d4"/>
          <path id="Path_5803" data-name="Path 5803" d="M.3,2.854C.277,2.5.254,2.141.22,1.806S.158,1.16.131.892C.074.357.026,0,.026,0H0V5.708H.014a2.432,2.432,0,0,0,.105-.245c.029-.078.063-.173.093-.282S.275,4.95.3,4.816s.052-.278.069-.431A3.588,3.588,0,0,0,.4,3.9a4.8,4.8,0,0,0-.042-.516C.337,3.211.318,3.033.3,2.854Z" transform="translate(4.991 0)" fill="#dcdcdc"/>
          <path id="Path_5804" data-name="Path 5804" d="M2.333,1.176c-.3.2-.593.4-.866.6S.938,2.15.72,2.308c-.435.317-.72.536-.72.536l.013.023L4.956.013,4.948,0a2.321,2.321,0,0,0-.265.031C4.6.045,4.5.063,4.393.091S4.162.154,4.034.2s-.267.095-.408.156a3.527,3.527,0,0,0-.433.215,4.8,4.8,0,0,0-.425.294C2.625.969,2.48,1.075,2.333,1.176Z" transform="translate(0 5.672)" fill="#dcdcdc"/>
          <path id="Path_5805" data-name="Path 5805" d="M.446,6.423.206,0H0V6.423Z" transform="translate(4.956 5.463)" fill="#787878"/>
          <path id="Path_5806" data-name="Path 5806" d="M2.623,1.176c.3.2.593.4.866.6s.529.377.747.535c.435.317.72.536.72.536l-.013.023L0,.013.007,0A2.323,2.323,0,0,1,.272.031c.081.014.181.032.29.06S.793.154.922.2s.267.095.409.156a3.517,3.517,0,0,1,.432.215,4.807,4.807,0,0,1,.426.294C2.331.969,2.476,1.075,2.623,1.176Z" transform="translate(4.97 5.672)" fill="#dcdcdc"/>
          <path id="Path_5807" data-name="Path 5807" d="M1.265.632A.632.632,0,1,1,.632,0,.632.632,0,0,1,1.265.632Z" transform="translate(4.338 5.075)" fill="#6e6e6e"/>
          <rect id="Rectangle_2000" data-name="Rectangle 2000" width="1.792" height="0.488" transform="translate(4.075 11.641)" fill="#414042"/>
          <path id="Path_5808" data-name="Path 5808" d="M.9.449A.449.449,0,1,1,.449,0,.449.449,0,0,1,.9.449Z" transform="translate(4.522 5.259)" fill="#414042"/>
        </g>
        <g id="Group_11621" data-name="Group 11621" transform="translate(0 0)">
          <path id="Path_5809" data-name="Path 5809" d="M.877,0l.337,9.034H0L.337,0Z" transform="translate(6.385 7.684)" fill="#6e6e6e"/>
          <path id="Path_5810" data-name="Path 5810" d="M.057,0A3.275,3.275,0,0,1,.43.045C.545.065.684.09.837.13s.325.088.507.15.375.134.574.221a4.976,4.976,0,0,1,.608.3,6.66,6.66,0,0,1,.6.414c.2.15.4.3.61.442.414.285.832.566,1.216.842s.743.532,1.049.755c.611.447,1.012.757,1.012.757l-.057.1s-.469-.192-1.161-.5c-.346-.154-.749-.333-1.178-.531s-.883-.415-1.338-.632c-.227-.108-.458-.209-.687-.306a6.681,6.681,0,0,1-.658-.311,4.926,4.926,0,0,1-.567-.374C1.19,1.331,1.03,1.2.886,1.074S.613.823.5.709.3.489.225.4A3.134,3.134,0,0,1,0,.1Z" transform="translate(6.971 7.979)" fill="#d1d3d4"/>
          <path id="Path_5811" data-name="Path 5811" d="M7.01.1a3.1,3.1,0,0,1-.225.3c-.075.09-.166.2-.278.311s-.239.238-.383.364-.3.257-.479.386a4.857,4.857,0,0,1-.567.374,6.792,6.792,0,0,1-.658.311c-.229.1-.461.2-.688.306-.454.217-.905.439-1.337.632s-.832.377-1.178.531c-.693.306-1.161.5-1.161.5L0,4.015s.4-.31,1.011-.757c.306-.222.663-.482,1.049-.755s.8-.557,1.216-.842c.208-.143.411-.292.61-.442A6.611,6.611,0,0,1,4.484.8,5,5,0,0,1,5.091.5c.2-.086.392-.16.574-.221s.353-.111.507-.15S6.465.065,6.58.045A3.265,3.265,0,0,1,6.952,0Z" transform="translate(0.01 7.979)" fill="#d1d3d4"/>
          <path id="Path_5812" data-name="Path 5812" d="M.533,8.028a3.3,3.3,0,0,1-.147-.345c-.04-.11-.087-.243-.129-.4S.171,6.961.134,6.773.064,6.381.04,6.165A5.083,5.083,0,0,1,0,5.487a6.864,6.864,0,0,1,.062-.725c.031-.247.06-.5.08-.748.04-.5.075-1,.124-1.474S.357,1.63.4,1.254C.48.5.55,0,.55,0H.663S.73.5.811,1.255c.039.376.085.816.126,1.286s.08.972.118,1.474c.019.251.047.5.077.749a6.736,6.736,0,0,1,.058.725,5.014,5.014,0,0,1-.042.678c-.025.216-.058.419-.1.607s-.082.361-.125.513-.091.286-.131.4a3.253,3.253,0,0,1-.148.344Z" transform="translate(6.393 0)" fill="#d1d3d4"/>
          <path id="Path_5813" data-name="Path 5813" d="M.428,4.015c-.038-.5-.071-1-.118-1.474S.222,1.631.184,1.255C.1.5.036,0,.036,0H0V8.028H.02a3.256,3.256,0,0,0,.148-.344c.04-.11.089-.243.131-.4s.088-.325.125-.513.072-.392.1-.607a5.014,5.014,0,0,0,.042-.678A6.733,6.733,0,0,0,.5,4.764C.474,4.517.447,4.266.428,4.015Z" transform="translate(7.02 0)" fill="#dcdcdc"/>
          <path id="Path_5814" data-name="Path 5814" d="M3.281,1.654c-.415.284-.834.563-1.217.84s-.745.53-1.051.752C.4,3.691,0,4,0,4l.018.032L6.971.017,6.961,0a3.144,3.144,0,0,0-.373.044c-.115.02-.255.045-.408.085s-.325.087-.507.149S5.3.411,5.1.5a5,5,0,0,0-.608.3,6.668,6.668,0,0,0-.6.414C3.693,1.362,3.489,1.512,3.281,1.654Z" transform="translate(0 7.979)" fill="#dcdcdc"/>
          <path id="Path_5815" data-name="Path 5815" d="M.627,9.034.29,0H0V9.034Z" transform="translate(6.971 7.684)" fill="#787878"/>
          <path id="Path_5816" data-name="Path 5816" d="M3.69,1.654c.415.284.833.563,1.217.84s.744.53,1.051.752C6.57,3.691,6.971,4,6.971,4l-.018.032L0,.017.01,0A3.144,3.144,0,0,1,.383.044C.5.064.637.089.791.129s.325.087.507.149.375.133.574.22A5.041,5.041,0,0,1,2.48.8a6.722,6.722,0,0,1,.6.414C3.279,1.362,3.481,1.512,3.69,1.654Z" transform="translate(6.991 7.979)" fill="#dcdcdc"/>
          <path id="Path_5817" data-name="Path 5817" d="M1.778.889A.889.889,0,1,1,.889,0,.889.889,0,0,1,1.778.889Z" transform="translate(6.102 7.139)" fill="#6e6e6e"/>
          <rect id="Rectangle_2001" data-name="Rectangle 2001" width="2.52" height="0.687" transform="translate(5.732 16.375)" fill="#414042"/>
          <path id="Path_5818" data-name="Path 5818" d="M1.263.631A.632.632,0,1,1,.631,0,.632.632,0,0,1,1.263.631Z" transform="translate(6.36 7.397)" fill="#414042"/>
        </g>
      </g>
    </g>
  </g>
</svg>
