<svg xmlns="http://www.w3.org/2000/svg" width="19.974" height="20" viewBox="0 0 19.974 20">
  <g id="checked" transform="translate(-0.301 0)">
    <path id="Path_5372" data-name="Path 5372" d="M18.095,18.772c-3.06,2.5-12.616,2.5-15.614,0-3.06-2.5-2.748-13.178,0-15.989s12.866-2.811,15.614,0S21.155,16.273,18.095,18.772Z" transform="translate(0 -0.645)" fill="#8171ff"/>
    <g id="Group_11490" data-name="Group 11490" transform="translate(0.31 0)" opacity="0.2">
      <path id="Path_5373" data-name="Path 5373" d="M10.549,13.755a14.623,14.623,0,0,1-8.681,3.373C-.255,13.5.182,4.7,2.68,2.138,4.928-.173,11.986-.61,16.046.826,17.045,4.948,14.984,10.195,10.549,13.755Z" transform="translate(-0.509 0)" fill="#fff"/>
    </g>
    <path id="Path_5374" data-name="Path 5374" d="M87.669,112.5a1.335,1.335,0,0,1-1.124-.562l-3.5-4.5a1.424,1.424,0,1,1,2.248-1.749l2.373,3.06,5.246-6.808a1.424,1.424,0,0,1,2.248,1.749l-6.371,8.244A1.634,1.634,0,0,1,87.669,112.5Z" transform="translate(-78.818 -96.936)" fill="#fff"/>
  </g>
</svg>
