<svg xmlns="http://www.w3.org/2000/svg" width="19.79" height="19.79" viewBox="0 0 19.79 19.79">
  <g id="Group_11491" data-name="Group 11491" transform="translate(-473 -1418)" opacity="0.39">
    <g id="Path_5376" data-name="Path 5376" transform="translate(473 1418)" fill="#fff">
      <path d="M 9.89501953125 19.2900390625 C 4.714589595794678 19.2900390625 0.4999995231628418 15.07544994354248 0.4999995231628418 9.89501953125 C 0.4999995231628418 4.714589595794678 4.714589595794678 0.4999995231628418 9.89501953125 0.4999995231628418 C 15.07544994354248 0.4999995231628418 19.2900390625 4.714589595794678 19.2900390625 9.89501953125 C 19.2900390625 15.07544994354248 15.07544994354248 19.2900390625 9.89501953125 19.2900390625 Z" stroke="none"/>
      <path d="M 9.89501953125 1 C 4.990289688110352 1 1 4.990289688110352 1 9.89501953125 C 1 14.79974937438965 4.990289688110352 18.7900390625 9.89501953125 18.7900390625 C 14.79974937438965 18.7900390625 18.7900390625 14.79974937438965 18.7900390625 9.89501953125 C 18.7900390625 4.990289688110352 14.79974937438965 1 9.89501953125 1 M 9.89501953125 0 C 15.35988998413086 0 19.7900390625 4.430149078369141 19.7900390625 9.89501953125 C 19.7900390625 15.35988998413086 15.35988998413086 19.7900390625 9.89501953125 19.7900390625 C 4.430149078369141 19.7900390625 0 15.35988998413086 0 9.89501953125 C 0 4.430149078369141 4.430149078369141 0 9.89501953125 0 Z" stroke="none" fill="#707070"/>
    </g>
    <path id="Path_5375" data-name="Path 5375" d="M2.293-12.66a1.018,1.018,0,0,1-.723-.283.944.944,0,0,1-.3-.719.968.968,0,0,1,.3-.726,1,1,0,0,1,.723-.29,1.034,1.034,0,0,1,.742.29.963.963,0,0,1,.3.726.949.949,0,0,1-.3.707A1.027,1.027,0,0,1,2.293-12.66Zm.853,9.471H1.425v-7.827H3.146Z" transform="translate(480.494 1437.004)" fill="#707070"/>
  </g>
</svg>
