<svg xmlns="http://www.w3.org/2000/svg" width="44.22" height="44.22" viewBox="0 0 44.22 44.22">
  <g id="file" transform="translate(-3 -3)">
    <path id="Path_5403" data-name="Path 5403" d="M21,8H51.5V48.408H21Z" transform="translate(-4.277 -1.188)" fill="#d3ceff"/>
    <path id="Path_5404" data-name="Path 5404" d="M46.5,9.862V43.408H16V3H39.635Z" transform="translate(-3.089)" fill="#b0a7fb"/>
    <path id="Path_5405" data-name="Path 5405" d="M53.862,9.862H47V3Z" transform="translate(-10.454)" fill="#988bff"/>
    <path id="Path_5406" data-name="Path 5406" d="M3,8H33.5V41.546H3Z" transform="translate(0 -1.188)" fill="#8171ff"/>
    <path id="Path_5407" data-name="Path 5407" d="M3,8H30.447v6.1H3Z" transform="translate(0 -1.188)" fill="none"/>
    <path id="Path_5408" data-name="Path 5408" d="M3,8H33.5v6.1H3Z" transform="translate(0 -1.188)" fill="#3650f8"/>
    <path id="Path_5409" data-name="Path 5409" d="M17.812,36l-.762,6.862H14V36Z" transform="translate(-2.613 -7.84)" fill="#e9e9ea"/>
    <path id="Path_5410" data-name="Path 5410" d="M18.862,28v6.1H12V28Z" transform="translate(-2.138 -5.94)" fill="#f19a60"/>
    <path id="Path_5411" data-name="Path 5411" d="M11.287,29v4.574L9,32.812v-3.05Z" transform="translate(-1.426 -6.177)" fill="#ffc740"/>
    <path id="Path_5412" data-name="Path 5412" d="M30.911,31.387v5.337L21,32.911v-6.1L30.911,23v8.387Z" transform="translate(-4.277 -4.752)" fill="#f3be77"/>
    <path id="Path_5413" data-name="Path 5413" d="M36.6,30.45a1.491,1.491,0,0,1,.45,1.075,1.529,1.529,0,0,1-1.525,1.525H34V30h1.525A1.491,1.491,0,0,1,36.6,30.45Z" transform="translate(-7.365 -6.415)" fill="#ff788b"/>
    <g id="Group_11504" data-name="Group 11504" transform="translate(7.574 18.248)">
      <path id="Path_5414" data-name="Path 5414" d="M30.911,28.337V23L21,26.812Z" transform="translate(-11.851 -23)" fill="none"/>
      <path id="Path_5415" data-name="Path 5415" d="M21,35.525l9.911,3.812V34Z" transform="translate(-11.851 -25.613)" fill="none"/>
      <path id="Path_5416" data-name="Path 5416" d="M12,28.762V28h6.862v6.1H17.337Z" transform="translate(-9.713 -24.188)" fill="none"/>
      <path id="Path_5417" data-name="Path 5417" d="M13.525,35.762H12V35Z" transform="translate(-9.713 -25.851)" fill="none"/>
      <path id="Path_5418" data-name="Path 5418" d="M11.287,33.574,9,32.812v-3.05L11.287,29Z" transform="translate(-9 -24.426)" fill="none"/>
      <path id="Path_5419" data-name="Path 5419" d="M14,36h3.812l-.762,6.862H14Z" transform="translate(-10.188 -26.089)" fill="none"/>
      <path id="Path_5420" data-name="Path 5420" d="M34,33.05h1.525a1.525,1.525,0,0,0,0-3.05H34Z" transform="translate(-14.94 -24.663)" fill="none"/>
    </g>
    <path id="Path_5421" data-name="Path 5421" d="M6,11H7.525v1.525H6Z" transform="translate(-0.713 -1.901)" fill="#fff"/>
    <path id="Path_5422" data-name="Path 5422" d="M10,11h1.525v1.525H10Z" transform="translate(-1.663 -1.901)" fill="#fff"/>
    <path id="Path_5423" data-name="Path 5423" d="M14,11h1.525v1.525H14Z" transform="translate(-2.613 -1.901)" fill="#fff"/>
    <path id="Path_5424" data-name="Path 5424" d="M43,17h6.862v1.525H43Z" transform="translate(-9.503 -3.326)" fill="#e9e6ff"/>
    <path id="Path_5425" data-name="Path 5425" d="M43,22h6.862v1.525H43Z" transform="translate(-9.503 -4.514)" fill="#e9e6ff"/>
    <path id="Path_5426" data-name="Path 5426" d="M43,27h6.862v1.525H43Z" transform="translate(-9.503 -5.702)" fill="#e9e6ff"/>
    <path id="Path_5427" data-name="Path 5427" d="M43,32h6.862v1.525H43Z" transform="translate(-9.503 -6.89)" fill="#e9e6ff"/>
    <path id="Path_5428" data-name="Path 5428" d="M43,37h6.862v1.525H43Z" transform="translate(-9.503 -8.078)" fill="#e9e6ff"/>
    <path id="Path_5429" data-name="Path 5429" d="M43,42h6.862v1.525H43Z" transform="translate(-9.503 -9.266)" fill="#e9e6ff"/>
    <path id="Path_5430" data-name="Path 5430" d="M43,47h6.862v1.525H43Z" transform="translate(-9.503 -10.454)" fill="#e9e6ff"/>
  </g>
</svg>
