<svg xmlns="http://www.w3.org/2000/svg" width="69" height="70" viewBox="0 0 69 70">
  <g id="Group_580" data-name="Group 580" transform="translate(-0.085 0.487)">
    <ellipse id="Ellipse_1976" data-name="Ellipse 1976" cx="34.5" cy="35" rx="34.5" ry="35" transform="translate(0.085 -0.487)" fill="#5454d4" opacity="0.2"/>
    <g id="Group_8126" data-name="Group 8126" transform="translate(-194.915 -1067.487)">
      <path id="Path_2986" data-name="Path 2986" d="M24,0A24,24,0,1,1,0,24,24,24,0,0,1,24,0Z" transform="translate(205.008 1078.008)" fill="#7789ff"/>
      <path id="Path_728" data-name="Path 728" d="M268.236,227.528l-4.872,4.038-1.159,3.36a24.508,24.508,0,0,0,.186,3.715c.111.329.856.725,1.414-.279a4.751,4.751,0,0,0,.058-2.2l.954-1.717,1.873-1.521,2.3-.7.083-3.812Z" transform="translate(-34.676 865.465)" fill="#f6b07f"/>
      <path id="Path_729" data-name="Path 729" d="M259.4,239.177c-.218-.647-1.776-2.344-1.617-3.26.151-.878,2.138-3.055,2.59-3.816a8.239,8.239,0,0,1,1.113-1.381A11.038,11.038,0,0,0,264,233.367l-.3.092-1.872,1.522-.953,1.715a4.786,4.786,0,0,1-.058,2.2C260.256,239.9,259.512,239.505,259.4,239.177Z" transform="translate(-32.538 863.97)" fill="#ffc89f"/>
      <g id="Group_7150" data-name="Group 7150" transform="translate(223.011 1099.408)">
        <g id="Group_7148" data-name="Group 7148" transform="translate(0 0.007)">
          <g id="Group_7145" data-name="Group 7145" transform="translate(0.957 0.143)">
            <path id="Path_730" data-name="Path 730" d="M255.382,244.261a5.105,5.105,0,0,0,4.221,5.808l1.43-10.145a5.01,5.01,0,0,0-5.65,4.338Z" transform="translate(-255.323 -239.877)" fill="#f5a505"/>
            <path id="Path_731" data-name="Path 731" d="M269.249,245.769a5.2,5.2,0,0,1-.44,1.488,5.092,5.092,0,0,1-1.28,1.7,4.857,4.857,0,0,1-3.927,1.155l1.43-10.145c.111.017.222.037.331.061A5.117,5.117,0,0,1,269.249,245.769Z" transform="translate(-259.32 -239.915)" fill="#f5a505"/>
          </g>
          <path id="Path_732" data-name="Path 732" d="M259.18,239.654a5.01,5.01,0,0,0-5.65,4.338,5.105,5.105,0,0,0,4.22,5.808,5.01,5.01,0,0,0,5.65-4.338A5.105,5.105,0,0,0,259.18,239.654Z" transform="translate(-253.472 -239.608)" fill="#ffca00"/>
          <g id="Group_7146" data-name="Group 7146" transform="translate(0.84 0.862)">
            <path id="Path_733" data-name="Path 733" d="M255.145,244.875a4.246,4.246,0,0,0,3.51,4.83l1.189-8.438a4.166,4.166,0,0,0-4.7,3.608Z" transform="translate(-255.095 -241.229)" fill="#f5a505"/>
            <path id="Path_734" data-name="Path 734" d="M263.164,241.3l-1.19,8.438a4.167,4.167,0,0,0,4.7-3.608,4.246,4.246,0,0,0-3.51-4.83Z" transform="translate(-258.417 -241.261)" fill="#f5a505"/>
          </g>
        </g>
        <g id="Group_7149" data-name="Group 7149" transform="translate(0.06 0)" opacity="0.3">
          <path id="Path_749" data-name="Path 749" d="M258.028,239.616l-4.122,3.164a5.259,5.259,0,0,0-.315,1.191l5.638-4.329A4.843,4.843,0,0,0,258.028,239.616Z" transform="translate(-253.591 -239.591)" fill="#ffca00"/>
          <path id="Path_750" data-name="Path 750" d="M260.966,240.768l-7.266,5.579a5.18,5.18,0,0,0,1.265,2.456l7.935-6.092A5.073,5.073,0,0,0,260.966,240.768Z" transform="translate(-253.643 -240.142)" fill="#ffca00"/>
        </g>
      </g>
      <path id="Path_751" data-name="Path 751" d="M255.254,239.929l.429.672.713.327-.655.441-.319.734-.429-.672-.714-.328.655-.441Z" transform="translate(-30.852 859.659)" fill="#fff"/>
      <path id="Path_752" data-name="Path 752" d="M280.651,224.379a20.424,20.424,0,0,1-4.022,1.931c-1.018.218-8.126-1.222-8.126-1.222a23.823,23.823,0,0,0-3.549,2.662,10.975,10.975,0,0,0,2.513,2.646l2-.608.291.022.326,1.753a26.02,26.02,0,0,0,2.313,1.369,4.339,4.339,0,0,0,1.238.461,9.485,9.485,0,0,0,2.524-.643s.232-.162.513-.344a4.913,4.913,0,0,1,.844-.469,15.65,15.65,0,0,1,3.137-.4Z" transform="translate(-36.004 866.94)" fill="#ffc89f"/>
      <path id="Path_753" data-name="Path 753" d="M268.222,237.912s-3.277,1.323-3.81,1.462c-1.147.3-1.246-1.17-.662-1.9a27.2,27.2,0,0,1,2.517-1.488c3.21-2.2,2.647-2.662,2.647-2.662l6.265-1.392-.267,2.761Z" transform="translate(-35.254 863.401)" fill="#ffc89f"/>
      <path id="Path_754" data-name="Path 754" d="M293.311,231.4l-3.027.4-1.341-6.392,3.411-1.234Z" transform="translate(-47.583 867.037)" fill="#fbf9f7"/>
      <path id="Path_755" data-name="Path 755" d="M297.914,229.7l-5.324,1-1.8-8.209,5.431-2.577Z" transform="translate(-48.478 869.03)" fill="#2e475d"/>
      <path id="Path_756" data-name="Path 756" d="M1.974,11.5l4.2-4.713.4-3.278A19.854,19.854,0,0,0,5.45.214c-.2-.27-1.095-.462-1.44.565-.216.632.485,1.993.485,1.993L3.9,4.527,2.282,6.309,0,7.448.862,10.9Z" transform="translate(230.042 1104.432) rotate(36.011)" fill="#f6b07f"/>
      <path id="Path_757" data-name="Path 757" d="M3.465.214C3.858.748,5.945,1.929,6,2.789c.057.823-1.521,3.222-1.817,4.005a7.27,7.27,0,0,1-.844,1.488A12.337,12.337,0,0,0,0,6.458l.3-.15L1.92,4.527l.591-1.754S1.811,1.411,2.025.78C2.372-.247,3.266-.056,3.465.214Z" transform="translate(232.179 1106.819) rotate(36.011)" fill="#ffc89f"/>
      <path id="Path_768" data-name="Path 768" d="M1.784,9.665A22.5,22.5,0,0,1,5.6,7.037c1.032-.424,8.985-.7,8.985-.7a23.953,23.953,0,0,0,3.128-3.182,12.314,12.314,0,0,0-3.344-1.821l-1.984.989-.316.044L11.283.859S9.764.394,8.471.143A5.566,5.566,0,0,0,7.031,0,11.362,11.362,0,0,0,4.5,1.141s-.207.2-.462.423a5.264,5.264,0,0,1-.785.608A19.442,19.442,0,0,1,0,3.226Z" transform="translate(217.542 1102.523) rotate(36.011)" fill="#ffc89f"/>
      <path id="Path_769" data-name="Path 769" d="M6.345,2.281S9.516.365,10.05.122C11.2-.4,11.673.9,11.229,1.68a28.655,28.655,0,0,1-2.318,1.9C6.031,6.263,6.747,6.556,6.747,6.556L.4,9.2,0,6.655Z" transform="translate(224.394 1102.319) rotate(36.011)" fill="#ffc89f"/>
      <path id="Path_770" data-name="Path 770" d="M0,1.032,3.133,0,6.157,5.451,2.822,7.317Z" transform="translate(215.162 1103.853) rotate(36.011)" fill="#fbf9f7"/>
      <path id="Path_771" data-name="Path 771" d="M0,2.081,5.438,0,9.4,6.984,4.242,10.506Z" transform="translate(212.188 1101.081) rotate(36.011)" fill="#292b37"/>
    </g>
  </g>
</svg>
