<svg xmlns="http://www.w3.org/2000/svg" width="70" height="70" viewBox="0 0 70 70">
  <g id="Group_578" data-name="Group 578" transform="translate(0.487 0.487)">
    <circle id="Ellipse_1975" data-name="Ellipse 1975" cx="35" cy="35" r="35" transform="translate(-0.487 -0.487)" fill="#d8d9f3"/>
    <g id="Group_8126" data-name="Group 8126" transform="translate(-654.487 -1072.487)">
      <circle id="Ellipse_127" data-name="Ellipse 127" cx="24" cy="24" r="24" transform="translate(665 1083)" fill="#7789ff"/>
      <g id="Group_7073" data-name="Group 7073" transform="translate(679.475 1087.949)">
        <g id="Group_7040" data-name="Group 7040" transform="translate(2.67 0)">
          <g id="Group_7030" data-name="Group 7030" transform="translate(0 14.208)">
            <g id="Group_7029" data-name="Group 7029" transform="translate(0 0)">
              <path id="Path_465" data-name="Path 465" d="M161.181,501.221l-3.424,1.451-.089,3.177-.545.2-.048-.189-1.363-5.387,2.644-2.626.472-.468Z" transform="translate(-155.711 -497.339)" fill="#ff4040"/>
              <path id="Path_466" data-name="Path 466" d="M193.121,500.295l-.669,2.758-.687,2.832-.547-.19-.121-3.175L187.66,501.1l2.315-3.87.829.807Z" transform="translate(-179.689 -497.232)" fill="#ff4040"/>
            </g>
            <path id="Path_467" data-name="Path 467" d="M192.453,503.054l-.687,2.831-.547-.19-.121-3.175L187.66,501.1l2.315-3.87.829.807c-.12.343-.311.668-.462,1a5.129,5.129,0,0,0-.427,1.527,1.172,1.172,0,0,0,.15.867c.309.393.919.312,1.378.508a1.794,1.794,0,0,1,.708.624A4.111,4.111,0,0,1,192.453,503.054Z" transform="translate(-179.689 -497.232)" fill="#892b2b" opacity="0.2"/>
          </g>
          <path id="Path_468" data-name="Path 468" d="M164.725,501.221l-3.424,1.451-.089,3.177-.545.2-.048-.189a2.841,2.841,0,0,0-.059-1.07,3.671,3.671,0,0,1,.17-2.449,10.046,10.046,0,0,1,.861-1.075,3.35,3.35,0,0,0,.309-3.419l.472-.468Z" transform="translate(-159.256 -483.13)" fill="#892b2b" opacity="0.2"/>
          <path id="Path_469" data-name="Path 469" d="M177.464,516.862h-3.978l-.4,1.013h4.776Z" transform="translate(-168.751 -497.756)" fill="#d2dae8"/>
          <path id="Path_470" data-name="Path 470" d="M177.463,516.863h-3.978l-.106.268c1.327.083,2.72-.5,3.957.241.087.087-.262.175-.349.175a34.185,34.185,0,0,1-3.9.316l-.005.013h4.776Z" transform="translate(-168.75 -497.757)" fill="#d2dae8" opacity="0.2"/>
          <path id="Path_471" data-name="Path 471" d="M176.784,520.882h-1.948a6.888,6.888,0,0,0,1.948,3.316,6.889,6.889,0,0,0,1.948-3.316Z" transform="translate(-170.064 -500.773)" fill="#ffca00"/>
          <path id="Path_472" data-name="Path 472" d="M176.784,520.882h-1.948q.034.175.08.341a7.152,7.152,0,0,1,2.165.036,1.9,1.9,0,0,1,.436.349.894.894,0,0,1-.436,1.132,4.266,4.266,0,0,0-1.015.666,6.94,6.94,0,0,0,.718.8,6.889,6.889,0,0,0,1.948-3.316Z" transform="translate(-170.064 -500.773)" fill="#f5a505" opacity="0.3"/>
          <g id="Group_7031" data-name="Group 7031" transform="translate(2.681)">
            <path id="Path_473" data-name="Path 473" d="M169.581,461.727q.153-.465.325-.9Q169.735,461.261,169.581,461.727Z" transform="translate(-168.802 -455.698)" fill="#fff"/>
            <path id="Path_474" data-name="Path 474" d="M174.541,450.929a27.242,27.242,0,0,1-.147,2.852q-.08.756-.2,1.465c-.017.094-.032.187-.05.281q-.076.417-.165.814c-.039.175-.081.349-.124.518-.022.087-.044.169-.066.251-.044.166-.092.328-.14.488-.121.4-.254.769-.393,1.116q-.17.417-.357.78h-4.8q-.187-.363-.357-.78c-.087-.208-.166-.425-.244-.652-.051-.151-.1-.305-.151-.464s-.1-.321-.14-.488c-.023-.082-.044-.166-.066-.251-.044-.169-.085-.343-.124-.518-.024-.108-.047-.218-.07-.326-.034-.16-.065-.323-.1-.487-.017-.093-.033-.186-.049-.281q-.12-.708-.2-1.465a27.241,27.241,0,0,1-.147-2.852,14.552,14.552,0,0,1,.631-4.142c.047-.159.1-.316.147-.471q.154-.465.326-.9c.143-.366.293-.716.446-1.052q.145-.316.295-.611c.058-.116.116-.228.175-.339v0c.064-.121.126-.237.19-.353l.094-.17v0q.14-.249.276-.48c.4-.663.761-1.192,1.026-1.555s.433-.559.433-.559.167.2.432.559.631.892,1.026,1.555c.091.152.184.312.277.48v0c.031.056.063.112.094.17q.1.175.191.356c.058.111.116.224.175.339q.149.3.294.611c.154.335.305.686.446,1.052.114.292.224.594.326.9q.076.233.148.471A14.552,14.552,0,0,1,174.541,450.929Z" transform="translate(-166.458 -440.288)" fill="#fbfcfd"/>
            <path id="Path_475" data-name="Path 475" d="M177.707,446.786q-.072-.239-.148-.471c-.1-.31-.212-.611-.326-.9-.142-.366-.292-.717-.446-1.052q-.145-.316-.294-.611c-.058-.115-.115-.228-.175-.339s-.127-.241-.191-.356c-.031-.058-.063-.114-.094-.17v0c-.093-.166-.186-.326-.277-.48-.4-.663-.761-1.192-1.026-1.555s-.432-.559-.432-.559-.127.15-.336.428l.02.031a15.135,15.135,0,0,1,2.69,10.336c-.247,3.045-2.807,5.851-5.153,7.569.008.02.016.041.024.062q.17.417.357.78h4.795q.187-.363.357-.78c.141-.346.274-.72.393-1.116.048-.159.095-.321.14-.488.022-.082.044-.166.066-.251.044-.169.087-.343.124-.518q.087-.4.165-.814c.017-.093.033-.186.05-.281q.119-.708.2-1.465a27.238,27.238,0,0,0,.147-2.852,14.552,14.552,0,0,0-.63-4.141Z" transform="translate(-170.257 -440.287)" fill="#d2dae8" opacity="0.2"/>
            <path id="Path_476" data-name="Path 476" d="M178.225,449.492q-.072-.239-.148-.471c-.1-.31-.212-.611-.326-.9-.142-.366-.292-.716-.446-1.052q-.145-.316-.294-.611c-.058-.115-.115-.228-.175-.339s-.127-.241-.191-.356c-.031-.058-.062-.114-.094-.17v0c-.093-.166-.186-.326-.277-.48-.286-.48-.555-.888-.785-1.214.019.056.038.112.054.17,2.916,6.119,3.951,12.757.295,16.587-.922.922-2.444.988-3.631,1.11.069.152.138.3.211.439h4.795q.187-.363.357-.78c.141-.346.274-.72.393-1.116.048-.159.095-.321.14-.488.022-.082.044-.166.066-.251.044-.169.087-.343.124-.518q.087-.4.165-.814c.017-.093.033-.186.05-.281q.119-.708.2-1.465a27.243,27.243,0,0,0,.147-2.852A14.551,14.551,0,0,0,178.225,449.492Z" transform="translate(-170.771 -442.992)" fill="#d2dae8" opacity="0.2"/>
          </g>
          <g id="Group_7032" data-name="Group 7032" transform="translate(5.301 3.897)">
            <path id="Path_477" data-name="Path 477" d="M178.381,455.9a1.421,1.421,0,1,0,1.421,1.421,1.421,1.421,0,0,0-1.421-1.421Z" transform="translate(-176.96 -455.9)" fill="#d2dae8" opacity="0.5"/>
            <path id="Path_478" data-name="Path 478" d="M179.425,457.288a1.074,1.074,0,1,0,1.074,1.074,1.074,1.074,0,0,0-1.074-1.074Z" transform="translate(-178.004 -456.942)" fill="#292b37"/>
            <path id="Path_479" data-name="Path 479" d="M179.833,457.368a1.073,1.073,0,0,0-.407-.08,1.092,1.092,0,0,0-.111.006q-.442.318-.877.648a1.068,1.068,0,0,0-.085.42v.019Q179.082,457.868,179.833,457.368Z" transform="translate(-178.005 -456.942)" fill="#fbf9f7" opacity="0.1"/>
            <path id="Path_480" data-name="Path 480" d="M180.451,458.5c-.571.4-1.142.812-1.728,1.2a1.073,1.073,0,0,0,.259.359c.567-.385,1.15-.765,1.745-1.117a1.072,1.072,0,0,0-.277-.447Z" transform="translate(-178.283 -457.853)" fill="#fbf9f7" opacity="0.1"/>
          </g>
          <g id="Group_7039" data-name="Group 7039" transform="translate(3.968 7.821)">
            <path id="Path_481" data-name="Path 481" d="M174.37,471.632a2.754,2.754,0,1,0,2.754,2.754A2.754,2.754,0,0,0,174.37,471.632Z" transform="translate(-171.616 -471.632)" fill="#d2dae8" opacity="0.5"/>
            <g id="Group_7038" data-name="Group 7038" transform="translate(0.342 0.341)">
              <g id="Group_7037" data-name="Group 7037" transform="translate(0 0)">
                <g id="Group_7035" data-name="Group 7035" transform="translate(0)">
                  <path id="Path_482" data-name="Path 482" d="M175.4,473a2.412,2.412,0,1,0,2.412,2.412A2.412,2.412,0,0,0,175.4,473Z" transform="translate(-172.987 -473)" fill="#ffca00"/>
                  <g id="Group_7034" data-name="Group 7034" transform="translate(0.405 0.408)">
                    <path id="Path_483" data-name="Path 483" d="M176.618,474.631a2.007,2.007,0,1,0,2.007,2.007A2.007,2.007,0,0,0,176.618,474.631Z" transform="translate(-174.611 -474.631)" fill="#f5a505"/>
                    <g id="Group_7033" data-name="Group 7033" transform="translate(1.133 0.679)">
                      <path id="Path_484" data-name="Path 484" d="M179.152,477.37h1.108a.669.669,0,0,1,.758.718.534.534,0,0,1-.368.575.564.564,0,0,1,.411.606.694.694,0,0,1-.792.79h-1.118Zm1.078,1.065a.266.266,0,0,0,.283-.305c0-.249-.152-.305-.283-.305h-.562v.611Zm.02,1.17c.156,0,.3-.074.3-.36,0-.2-.08-.377-.3-.377h-.583v.736Z" transform="translate(-179.152 -477.364)" fill="#ffca00"/>
                    </g>
                  </g>
                </g>
                <g id="Group_7036" data-name="Group 7036" opacity="0.3">
                  <path id="Path_485" data-name="Path 485" d="M174.818,473.072l-1.76,1.759a2.413,2.413,0,0,0-.071.576L175.393,473a2.386,2.386,0,0,0-.575.072Z" transform="translate(-172.987 -473)" fill="#ffca00"/>
                  <path id="Path_486" data-name="Path 486" d="M176.694,473.606l-3.1,3.1a2.414,2.414,0,0,0,.771,1.056l3.387-3.387A2.42,2.42,0,0,0,176.694,473.606Z" transform="translate(-173.441 -473.454)" fill="#ffca00"/>
                </g>
              </g>
            </g>
          </g>
          <rect id="Rectangle_269" data-name="Rectangle 269" width="0.702" height="9.266" transform="translate(6.45 14.414)" fill="#ff4040"/>
          <path id="Path_487" data-name="Path 487" d="M178.593,451.205h-4.045v0c.064-.121.126-.237.19-.353.031-.058.063-.114.094-.17v0H178.3v0q.047.083.094.17Q178.5,451.023,178.593,451.205Z" transform="translate(-169.848 -448.085)" fill="#ff4040"/>
        </g>
        <g id="Group_7072" data-name="Group 7072" transform="translate(0 25.534)">
          <g id="Group_7046" data-name="Group 7046" transform="translate(11.518 3.278)">
            <g id="Group_7041" data-name="Group 7041" transform="translate(0.148 4.075)">
              <path id="Path_488" data-name="Path 488" d="M198.965,579.876v.018c-.044.591-2.292.748-3.55.748-.081,0-.168,0-.257,0-.455-.007-.992-.033-1.5-.087a4.256,4.256,0,0,1-1.553-.381.486.486,0,0,1-.168-.162h0a.218.218,0,0,1-.044-.131Z" transform="translate(-191.865 -578.607)" fill="#a7660a"/>
              <path id="Path_489" data-name="Path 489" d="M194.513,577.32V578.6c-.316-.014-.617-.037-.893-.065a3.909,3.909,0,0,1-1.745-.44h0a.18.18,0,0,1-.072-.131v-.614h2.288C194.225,577.334,194.368,577.327,194.513,577.32Z" transform="translate(-191.799 -576.689)" fill="#f5a505"/>
              <path id="Path_490" data-name="Path 490" d="M200.9,577.263v1.275c.268.012.548.018.836.018s.558-.007.822-.018v-1.276c-.264-.011-.538-.018-.822-.018S201.17,577.251,200.9,577.263Z" transform="translate(-198.188 -576.631)" fill="#f4b73d"/>
              <path id="Path_491" data-name="Path 491" d="M212.038,578.5c.658-.119,1.07-.284,1.07-.468v-.613h-1.07Z" transform="translate(-206.008 -576.761)" fill="#f5a505"/>
              <path id="Path_492" data-name="Path 492" d="M206.471,577.318v1.276a12.72,12.72,0,0,0,1.658-.17v-1.082H206.91C206.768,577.332,206.621,577.325,206.471,577.318Z" transform="translate(-202.099 -576.687)" fill="#ea8d0b"/>
              <path id="Path_493" data-name="Path 493" d="M198.894,575.442c0,.184-.409.349-1.07.469a11.206,11.206,0,0,1-1.227.145q-.209.015-.431.023c-.262.012-.538.018-.821.018s-.567-.007-.837-.018c-.143-.006-.281-.014-.417-.024s-.279-.021-.412-.035c-1.121-.109-1.885-.328-1.885-.579,0-.067.053-.131.153-.19l.028-.017a2.366,2.366,0,0,1,.576-.2c.166-.038.355-.074.565-.1.256-.039.541-.071.848-.094q.27-.021.56-.034h.011c.26-.011.531-.017.81-.017s.56.007.824.018h.013a13.829,13.829,0,0,1,1.406.131c.087.014.171.027.252.044.106.02.206.04.3.061a2.3,2.3,0,0,1,.592.207.531.531,0,0,1,.047.03A.222.222,0,0,1,198.894,575.442Z" transform="translate(-191.794 -574.787)" fill="#ffca00"/>
              <path id="Path_494" data-name="Path 494" d="M196.469,575.14c-1.7,0-3.072.216-3.072.482s1.375.483,3.072.483,3.072-.218,3.072-.483S198.166,575.14,196.469,575.14Z" transform="translate(-192.92 -575.052)" fill="#f5a505"/>
            </g>
            <g id="Group_7042" data-name="Group 7042" transform="translate(0.163 3.056)">
              <path id="Path_495" data-name="Path 495" d="M199.022,575.788v.019a.32.32,0,0,1-.131.218,1.139,1.139,0,0,1-.315.168c-.061.024-.127.044-.2.067-.131.038-.279.072-.436.1a12.35,12.35,0,0,1-1.658.175c-.291.014-.567.019-.807.019s-.546-.006-.851-.021c-.247-.012-.5-.029-.75-.054a6.606,6.606,0,0,1-1.4-.262c-.025-.009-.049-.017-.072-.027a1.059,1.059,0,0,1-.336-.19.362.362,0,0,1-.073-.091.245.245,0,0,1-.034-.124Z" transform="translate(-191.922 -574.52)" fill="#a7660a"/>
              <path id="Path_496" data-name="Path 496" d="M194.559,573.237v1.275h-.015c-.218-.01-.43-.024-.631-.041a9.357,9.357,0,0,1-1.309-.19c-.11-.025-.209-.053-.3-.082a1.443,1.443,0,0,1-.3-.125.491.491,0,0,1-.1-.074.175.175,0,0,1-.064-.124v-.613h2.288C194.268,573.251,194.413,573.244,194.559,573.237Z" transform="translate(-191.844 -572.606)" fill="#f5a505"/>
              <path id="Path_497" data-name="Path 497" d="M200.955,573.179v1.275c.268.012.548.018.836.018s.558-.006.822-.018v-1.277c-.262-.012-.538-.018-.822-.018S201.223,573.167,200.955,573.179Z" transform="translate(-198.241 -572.547)" fill="#f4b73d"/>
              <path id="Path_498" data-name="Path 498" d="M212.089,574.415c.658-.119,1.07-.285,1.07-.469v-.613h-1.07Z" transform="translate(-206.058 -572.678)" fill="#f5a505"/>
              <path id="Path_499" data-name="Path 499" d="M206.521,573.236v1.276a12.741,12.741,0,0,0,1.658-.17V573.26h-1.22C206.817,573.25,206.671,573.243,206.521,573.236Z" transform="translate(-202.149 -572.605)" fill="#ea8d0b"/>
              <path id="Path_500" data-name="Path 500" d="M198.946,571.359c0,.184-.409.349-1.07.469-.081.015-.164.029-.252.041-.106.017-.218.032-.336.044-.2.023-.408.044-.63.058q-.214.015-.441.025c-.262.012-.539.018-.822.018s-.567-.007-.836-.018c-.147-.007-.289-.014-.427-.025l-.131-.01c-.179-.014-.349-.031-.513-.05l-.335-.044c-.8-.12-1.306-.3-1.306-.508,0-.1.124-.2.346-.282h0a3.146,3.146,0,0,1,.407-.122c.2-.048.441-.089.708-.126l.245-.03c.357-.04.756-.069,1.181-.083.036,0,.072,0,.109,0,.179-.006.363-.008.552-.008.329,0,.646.008.948.024l.158.009a12.414,12.414,0,0,1,1.265.135c.142.024.274.049.393.076l.031.007a1.632,1.632,0,0,1,.693.282.255.255,0,0,1,.046.06A.136.136,0,0,1,198.946,571.359Z" transform="translate(-191.846 -570.704)" fill="#ffca00"/>
              <path id="Path_501" data-name="Path 501" d="M196.519,571.057c-1.7,0-3.072.218-3.072.483s1.375.483,3.072.483,3.072-.218,3.072-.483S198.216,571.057,196.519,571.057Z" transform="translate(-192.969 -570.969)" fill="#f5a505"/>
            </g>
            <g id="Group_7043" data-name="Group 7043" transform="translate(0.447 2.038)">
              <path id="Path_502" data-name="Path 502" d="M196.42,572.477c1.269,0,3.55-.161,3.55-.768H192.9C192.9,572.316,195.15,572.477,196.42,572.477Z" transform="translate(-192.869 -570.44)" fill="#a7660a"/>
              <path id="Path_503" data-name="Path 503" d="M195.512,569.157v1.274c-.1,0-.192-.01-.284-.015-.309-.019-.6-.044-.864-.079a7.5,7.5,0,0,1-.809-.138,2.668,2.668,0,0,1-.518-.168.642.642,0,0,1-.175-.112l0,0a.174.174,0,0,1-.062-.122v-.614h2.288C195.224,569.171,195.367,569.163,195.512,569.157Z" transform="translate(-192.798 -568.525)" fill="#f5a505"/>
              <path id="Path_504" data-name="Path 504" d="M201.909,569.1v1.275c.268.012.548.018.836.018s.558-.006.822-.018V569.1q-.4-.018-.822-.018C202.461,569.079,202.177,569.086,201.909,569.1Z" transform="translate(-199.195 -568.466)" fill="#f4b73d"/>
              <path id="Path_505" data-name="Path 505" d="M213.043,570.332c.658-.119,1.07-.285,1.07-.468v-.614h-1.07Z" transform="translate(-207.012 -568.595)" fill="#f5a505"/>
              <path id="Path_506" data-name="Path 506" d="M207.476,569.153v1.276a12.72,12.72,0,0,0,1.658-.17v-1.082h-1.219C207.773,569.167,207.626,569.16,207.476,569.153Z" transform="translate(-203.104 -568.522)" fill="#ea8d0b"/>
              <path id="Path_507" data-name="Path 507" d="M199.9,567.277c0,.184-.409.349-1.07.469q-.185.035-.393.062-.165.023-.344.041-.235.025-.491.044-.209.016-.431.024c-.262.012-.538.018-.821.018s-.567-.007-.837-.018c-.143-.007-.281-.014-.417-.024-.279-.019-.542-.044-.782-.076l-.091-.013c-.087-.011-.167-.024-.245-.037-.723-.12-1.178-.294-1.178-.488a.029.029,0,0,1,0-.01.138.138,0,0,1,.024-.068,1.317,1.317,0,0,1,.729-.326c.109-.025.226-.049.354-.072.183-.032.384-.06.6-.085.175-.02.363-.038.559-.051.087-.006.181-.013.274-.017.32-.017.658-.027,1.009-.027.127,0,.253,0,.376,0,.062,0,.122,0,.182.006.527.015,1.015.052,1.438.1l.039,0c.288.038.544.083.76.133.1.025.2.051.284.078l.01,0C199.731,567.049,199.9,567.16,199.9,567.277Z" transform="translate(-192.799 -566.622)" fill="#ffca00"/>
              <path id="Path_508" data-name="Path 508" d="M197.474,566.974c-1.7,0-3.072.218-3.072.483s1.375.483,3.072.483,3.072-.218,3.072-.483S199.171,566.974,197.474,566.974Z" transform="translate(-193.924 -566.887)" fill="#f5a505"/>
            </g>
            <g id="Group_7044" data-name="Group 7044" transform="translate(0 1.021)">
              <path id="Path_509" data-name="Path 509" d="M198.479,567.625v.019a.225.225,0,0,1-.014.063.331.331,0,0,1-.092.131,1.061,1.061,0,0,1-.34.191c-.055.021-.115.041-.177.06a8.333,8.333,0,0,1-1.658.256c-.454.033-.9.047-1.265.047-.122,0-.253,0-.39,0-.276-.006-.576-.02-.878-.044h0c-.11-.008-.218-.017-.329-.028a6.137,6.137,0,0,1-1.476-.287l-.027-.01a.747.747,0,0,1-.382-.27.246.246,0,0,1-.034-.125Z" transform="translate(-191.377 -566.358)" fill="#a7660a"/>
              <path id="Path_510" data-name="Path 510" d="M194.017,565.074v1.274c-.224-.01-.439-.024-.645-.044-.37-.031-.706-.074-.994-.125-.114-.021-.218-.044-.317-.065s-.2-.051-.286-.078a1.09,1.09,0,0,1-.406-.2.175.175,0,0,1-.064-.125V565.1h2.288C193.731,565.085,193.874,565.08,194.017,565.074Z" transform="translate(-191.302 -564.444)" fill="#f5a505"/>
              <path id="Path_511" data-name="Path 511" d="M200.413,565.015v1.275c.268.012.549.018.837.018s.558-.006.822-.018v-1.276c-.264-.011-.538-.018-.822-.018S200.682,565,200.413,565.015Z" transform="translate(-197.697 -564.386)" fill="#f4b73d"/>
              <path id="Path_512" data-name="Path 512" d="M211.548,566.25c.658-.119,1.07-.285,1.07-.469v-.613h-1.07Z" transform="translate(-205.516 -564.514)" fill="#f5a505"/>
              <path id="Path_513" data-name="Path 513" d="M205.981,565.07v1.276a12.73,12.73,0,0,0,1.658-.17v-1.082H206.42C206.278,565.083,206.131,565.077,205.981,565.07Z" transform="translate(-201.607 -564.441)" fill="#ea8d0b"/>
              <path id="Path_514" data-name="Path 514" d="M198.4,563.2c0,.183-.409.349-1.07.468l-.039.007q-.16.028-.336.052c-.26.036-.547.064-.854.087-.139.01-.283.018-.431.024-.262.012-.539.018-.822.018s-.567-.007-.837-.018q-.213-.01-.416-.024l-.143-.01c-.087-.007-.17-.014-.253-.023-.12-.011-.236-.024-.349-.038-.938-.118-1.553-.317-1.553-.542,0-.1.124-.2.347-.283h0a3.229,3.229,0,0,1,.409-.122c.2-.048.441-.089.707-.125.149-.02.305-.038.472-.053.3-.029.621-.049.96-.061l.1,0c.179-.006.363-.008.552-.008.325,0,.639.008.939.023l.168.01a12.521,12.521,0,0,1,1.263.135c.143.024.275.049.4.077l.027.006a1.621,1.621,0,0,1,.694.282.217.217,0,0,1,.046.059A.131.131,0,0,1,198.4,563.2Z" transform="translate(-191.299 -562.545)" fill="#ffca00"/>
              <path id="Path_515" data-name="Path 515" d="M195.979,562.892c-1.7,0-3.072.218-3.072.483s1.375.482,3.072.482,3.072-.216,3.072-.482S197.676,562.892,195.979,562.892Z" transform="translate(-192.427 -562.807)" fill="#f5a505"/>
            </g>
            <g id="Group_7045" data-name="Group 7045" transform="translate(0.288 0)">
              <path id="Path_516" data-name="Path 516" d="M195.879,564.309c1.269,0,3.55-.161,3.55-.768H192.36C192.36,564.15,194.61,564.309,195.879,564.309Z" transform="translate(-192.332 -562.273)" fill="#a7660a"/>
              <path id="Path_517" data-name="Path 517" d="M194.975,560.991v1.274c-.1,0-.191-.01-.285-.015-.311-.019-.6-.046-.867-.079a7.58,7.58,0,0,1-.8-.137,2.666,2.666,0,0,1-.521-.169.654.654,0,0,1-.175-.112v0a.17.17,0,0,1-.062-.122v-.613h2.285C194.687,561,194.83,561,194.975,560.991Z" transform="translate(-192.263 -560.359)" fill="#f5a505"/>
              <path id="Path_518" data-name="Path 518" d="M201.368,560.932v1.275c.268.012.548.018.836.018s.558-.006.822-.018v-1.276q-.4-.018-.822-.018C201.92,560.913,201.637,560.92,201.368,560.932Z" transform="translate(-198.656 -560.3)" fill="#f4b73d"/>
              <path id="Path_519" data-name="Path 519" d="M212.5,562.167c.658-.119,1.07-.284,1.07-.468v-.614H212.5Z" transform="translate(-206.473 -560.429)" fill="#f5a505"/>
              <path id="Path_520" data-name="Path 520" d="M206.935,560.988v1.276a12.709,12.709,0,0,0,1.658-.17v-1.082h-1.219C207.232,561,207.085,560.993,206.935,560.988Z" transform="translate(-202.565 -560.357)" fill="#ea8d0b"/>
              <path id="Path_521" data-name="Path 521" d="M199.363,559.113c0,.183-.409.349-1.07.468-.123.023-.256.044-.4.062-.109.015-.222.028-.339.041-.154.016-.314.03-.48.044-.143.01-.29.018-.442.025-.262.012-.539.018-.822.018s-.567-.006-.836-.018c-.147-.007-.289-.015-.427-.025-.223-.016-.436-.036-.634-.059l-.137-.017c-.117-.015-.229-.032-.335-.049-.725-.12-1.178-.295-1.178-.488,0-.281.957-.521,2.3-.614.388-.027.809-.044,1.248-.044C197.773,558.457,199.363,558.75,199.363,559.113Z" transform="translate(-192.265 -558.457)" fill="#ffca00"/>
              <path id="Path_522" data-name="Path 522" d="M196.932,558.809c-1.7,0-3.072.218-3.072.483s1.375.483,3.072.483,3.072-.218,3.072-.483S198.629,558.809,196.932,558.809Z" transform="translate(-193.385 -558.721)" fill="#f5a505"/>
            </g>
          </g>
          <g id="Group_7054" data-name="Group 7054" transform="translate(0 1.281)">
            <g id="Group_7047" data-name="Group 7047" transform="translate(0.146 6.444)">
              <path id="Path_523" data-name="Path 523" d="M153.258,581.5a.5.5,0,0,0,.168.163,8.072,8.072,0,0,0,3.051.47c.087,0,.175,0,.256,0,1.271,0,3.551-.161,3.551-.766h-7.069A.218.218,0,0,0,153.258,581.5Z" transform="translate(-153.186 -580.098)" fill="#a7660a"/>
              <path id="Path_524" data-name="Path 524" d="M153.117,578.836v.613c0,.309,1.157.567,2.714.638v-1.275c-.145.007-.288.014-.425.024Z" transform="translate(-153.117 -578.18)" fill="#f5a505"/>
              <path id="Path_525" data-name="Path 525" d="M162.227,578.755v1.274c.268.012.548.018.836.018s.558-.007.822-.018v-1.276c-.264-.011-.538-.018-.822-.018S162.5,578.742,162.227,578.755Z" transform="translate(-159.513 -578.122)" fill="#f4b73d"/>
              <path id="Path_526" data-name="Path 526" d="M173.361,579.99c.658-.119,1.07-.284,1.07-.468v-.613h-1.07Z" transform="translate(-167.331 -578.252)" fill="#f5a505"/>
              <path id="Path_527" data-name="Path 527" d="M167.794,578.81v1.276a12.667,12.667,0,0,0,1.658-.17v-1.082h-1.219C168.091,578.824,167.944,578.817,167.794,578.81Z" transform="translate(-163.422 -578.178)" fill="#ea8d0b"/>
              <path id="Path_528" data-name="Path 528" d="M156.667,576.278c-1.96,0-3.55.294-3.55.655s1.589.655,3.55.655,3.55-.294,3.55-.655S158.627,576.278,156.667,576.278Z" transform="translate(-153.117 -576.278)" fill="#ffca00"/>
              <path id="Path_529" data-name="Path 529" d="M157.792,576.632c-1.7,0-3.072.218-3.072.482s1.375.483,3.072.483,3.072-.218,3.072-.483S159.489,576.632,157.792,576.632Z" transform="translate(-154.243 -576.544)" fill="#f5a505"/>
            </g>
            <g id="Group_7048" data-name="Group 7048" transform="translate(0.16 5.427)">
              <path id="Path_530" data-name="Path 530" d="M156.789,578.052c1.269,0,3.55-.161,3.55-.768H153.27C153.27,577.891,155.519,578.052,156.789,578.052Z" transform="translate(-153.238 -576.016)" fill="#a7660a"/>
              <path id="Path_531" data-name="Path 531" d="M153.168,574.754v.614c0,.309,1.157.567,2.713.638V574.73c-.145.007-.288.014-.425.024Z" transform="translate(-153.167 -574.1)" fill="#f5a505"/>
              <path id="Path_532" data-name="Path 532" d="M162.277,574.676v1.275c.268.012.548.018.837.018s.558-.006.822-.018v-1.275c-.264-.012-.538-.018-.822-.018S162.546,574.663,162.277,574.676Z" transform="translate(-159.562 -574.045)" fill="#f4b73d"/>
              <path id="Path_533" data-name="Path 533" d="M173.411,575.9c.658-.119,1.07-.284,1.07-.469v-.613h-1.07Z" transform="translate(-167.38 -574.169)" fill="#f5a505"/>
              <path id="Path_534" data-name="Path 534" d="M167.844,574.728V576a12.763,12.763,0,0,0,1.658-.17v-1.082h-1.219C168.141,574.742,167.994,574.735,167.844,574.728Z" transform="translate(-163.471 -574.098)" fill="#ea8d0b"/>
              <path id="Path_535" data-name="Path 535" d="M156.715,572.2c-1.961,0-3.55.294-3.55.655s1.589.655,3.55.655,3.55-.294,3.55-.655S158.676,572.2,156.715,572.2Z" transform="translate(-153.165 -572.2)" fill="#ffca00"/>
              <path id="Path_536" data-name="Path 536" d="M157.842,572.549c-1.7,0-3.072.218-3.072.483s1.375.483,3.072.483,3.072-.218,3.072-.483S159.539,572.549,157.842,572.549Z" transform="translate(-154.291 -572.463)" fill="#f5a505"/>
            </g>
            <g id="Group_7049" data-name="Group 7049" transform="translate(0.445 4.407)">
              <path id="Path_537" data-name="Path 537" d="M157.743,573.969c1.269,0,3.55-.161,3.55-.768h-7.069C154.224,573.808,156.473,573.969,157.743,573.969Z" transform="translate(-154.193 -571.932)" fill="#a7660a"/>
              <path id="Path_538" data-name="Path 538" d="M154.122,570.67v.614c0,.309,1.157.567,2.714.638v-1.275c-.145.007-.288.014-.425.024Z" transform="translate(-154.122 -570.015)" fill="#f5a505"/>
              <path id="Path_539" data-name="Path 539" d="M163.232,570.59v1.275c.268.012.548.018.836.018s.558-.007.822-.018v-1.276q-.4-.018-.822-.018C163.784,570.571,163.5,570.578,163.232,570.59Z" transform="translate(-160.518 -569.958)" fill="#f4b73d"/>
              <path id="Path_540" data-name="Path 540" d="M174.366,571.824c.658-.119,1.07-.284,1.07-.468v-.614h-1.07Z" transform="translate(-168.336 -570.086)" fill="#f5a505"/>
              <path id="Path_541" data-name="Path 541" d="M168.8,570.645v1.276a12.677,12.677,0,0,0,1.658-.17v-1.082h-1.219C169.1,570.659,168.949,570.652,168.8,570.645Z" transform="translate(-164.428 -570.013)" fill="#ea8d0b"/>
              <path id="Path_542" data-name="Path 542" d="M157.672,568.113c-1.961,0-3.55.294-3.55.655s1.589.655,3.55.655,3.55-.294,3.55-.655S159.632,568.113,157.672,568.113Z" transform="translate(-154.122 -568.113)" fill="#ffca00"/>
              <path id="Path_543" data-name="Path 543" d="M158.8,568.466c-1.7,0-3.072.218-3.072.483s1.375.483,3.072.483,3.072-.218,3.072-.483S160.494,568.466,158.8,568.466Z" transform="translate(-155.248 -568.378)" fill="#f5a505"/>
            </g>
            <g id="Group_7050" data-name="Group 7050" transform="translate(0 3.388)">
              <path id="Path_544" data-name="Path 544" d="M156.248,569.886c1.269,0,3.55-.161,3.55-.768h-7.069C152.729,569.725,154.978,569.886,156.248,569.886Z" transform="translate(-152.698 -567.849)" fill="#a7660a"/>
              <path id="Path_545" data-name="Path 545" d="M152.627,566.588v.613c0,.309,1.157.567,2.713.638v-1.275c-.145.007-.288.014-.425.024Z" transform="translate(-152.627 -565.932)" fill="#f5a505"/>
              <path id="Path_546" data-name="Path 546" d="M161.736,566.507v1.275c.268.012.548.018.837.018s.558-.006.822-.018v-1.276c-.264-.011-.538-.018-.822-.018S162,566.493,161.736,566.507Z" transform="translate(-159.023 -565.875)" fill="#f4b73d"/>
              <path id="Path_547" data-name="Path 547" d="M172.871,567.742c.658-.119,1.07-.284,1.07-.469v-.613h-1.07Z" transform="translate(-166.841 -566.004)" fill="#f5a505"/>
              <path id="Path_548" data-name="Path 548" d="M167.3,566.562v1.276a12.73,12.73,0,0,0,1.658-.17v-1.082h-1.22C167.6,566.579,167.451,566.569,167.3,566.562Z" transform="translate(-162.93 -565.93)" fill="#ea8d0b"/>
              <path id="Path_549" data-name="Path 549" d="M156.177,564.03c-1.961,0-3.55.294-3.55.655s1.589.655,3.55.655,3.55-.294,3.55-.655S158.137,564.03,156.177,564.03Z" transform="translate(-152.627 -564.03)" fill="#ffca00"/>
              <path id="Path_550" data-name="Path 550" d="M157.3,564.384c-1.7,0-3.072.218-3.072.483s1.375.483,3.072.483,3.072-.218,3.072-.483S159,564.384,157.3,564.384Z" transform="translate(-153.752 -564.296)" fill="#f5a505"/>
            </g>
            <g id="Group_7051" data-name="Group 7051" transform="translate(0.284 2.37)">
              <path id="Path_551" data-name="Path 551" d="M157.2,565.809c1.269,0,3.55-.161,3.55-.768h-7.069C153.683,565.646,155.932,565.809,157.2,565.809Z" transform="translate(-153.652 -563.769)" fill="#a7660a"/>
              <path id="Path_552" data-name="Path 552" d="M153.581,562.506v.614c0,.309,1.157.567,2.714.638v-1.275c-.145.007-.288.014-.425.024Z" transform="translate(-153.581 -561.85)" fill="#f5a505"/>
              <path id="Path_553" data-name="Path 553" d="M162.691,562.424V563.7c.268.012.548.018.836.018s.558-.006.822-.018v-1.276q-.4-.018-.822-.018C163.243,562.4,162.959,562.412,162.691,562.424Z" transform="translate(-159.977 -561.792)" fill="#f4b73d"/>
              <path id="Path_554" data-name="Path 554" d="M173.825,563.659c.658-.119,1.07-.284,1.07-.468v-.614h-1.07Z" transform="translate(-167.795 -561.921)" fill="#f5a505"/>
              <path id="Path_555" data-name="Path 555" d="M168.258,562.48v1.274a12.72,12.72,0,0,0,1.658-.17V562.5H168.7C168.555,562.494,168.407,562.487,168.258,562.48Z" transform="translate(-163.886 -561.848)" fill="#ea8d0b"/>
              <path id="Path_556" data-name="Path 556" d="M157.131,559.948c-1.96,0-3.55.294-3.55.655s1.589.655,3.55.655,3.55-.294,3.55-.655S159.091,559.948,157.131,559.948Z" transform="translate(-153.581 -559.948)" fill="#ffca00"/>
              <path id="Path_557" data-name="Path 557" d="M158.256,560.3c-1.7,0-3.072.218-3.072.483s1.375.483,3.072.483,3.072-.218,3.072-.483S159.953,560.3,158.256,560.3Z" transform="translate(-154.707 -560.212)" fill="#f5a505"/>
            </g>
            <g id="Group_7052" data-name="Group 7052" transform="translate(0.067 1.152)">
              <path id="Path_558" data-name="Path 558" d="M156.473,560.922c1.269,0,3.55-.161,3.55-.768h-7.069C152.954,560.761,155.2,560.922,156.473,560.922Z" transform="translate(-152.923 -558.885)" fill="#a7660a"/>
              <path id="Path_559" data-name="Path 559" d="M152.852,557.624v.613c0,.309,1.157.567,2.713.638V557.6c-.145.007-.288.014-.425.024Z" transform="translate(-152.852 -556.968)" fill="#f5a505"/>
              <path id="Path_560" data-name="Path 560" d="M161.961,557.544v1.275c.268.012.548.018.837.018s.558-.006.822-.018v-1.276q-.4-.018-.822-.018C162.514,557.525,162.23,557.532,161.961,557.544Z" transform="translate(-159.248 -556.911)" fill="#f4b73d"/>
              <path id="Path_561" data-name="Path 561" d="M173.1,558.78c.658-.119,1.07-.285,1.07-.469V557.7H173.1Z" transform="translate(-167.068 -557.042)" fill="#f5a505"/>
              <path id="Path_562" data-name="Path 562" d="M167.529,557.6v1.276a12.73,12.73,0,0,0,1.658-.17v-1.082h-1.22C167.826,557.614,167.679,557.606,167.529,557.6Z" transform="translate(-163.157 -556.968)" fill="#ea8d0b"/>
              <path id="Path_563" data-name="Path 563" d="M156.4,555.066c-1.961,0-3.55.294-3.55.655s1.589.655,3.55.655,3.55-.294,3.55-.655S158.362,555.066,156.4,555.066Z" transform="translate(-152.852 -555.066)" fill="#ffca00"/>
              <ellipse id="Ellipse_109" data-name="Ellipse 109" cx="3.072" cy="0.483" rx="3.072" ry="0.483" transform="translate(0.477 0.088)" fill="#f5a505"/>
            </g>
            <g id="Group_7053" data-name="Group 7053" transform="translate(0.717)">
              <path id="Path_564" data-name="Path 564" d="M158.654,556.309c1.269,0,3.55-.161,3.55-.768h-7.069C155.134,556.147,157.384,556.309,158.654,556.309Z" transform="translate(-155.104 -554.27)" fill="#a7660a"/>
              <path id="Path_565" data-name="Path 565" d="M155.032,553.008v.614c0,.309,1.157.567,2.713.638v-1.275c-.145.007-.288.014-.425.024Z" transform="translate(-155.032 -552.352)" fill="#f5a505"/>
              <path id="Path_566" data-name="Path 566" d="M164.141,552.927V554.2c.268.012.548.018.837.018s.558-.006.822-.018v-1.276q-.4-.018-.822-.018C164.694,552.908,164.41,552.915,164.141,552.927Z" transform="translate(-161.428 -552.295)" fill="#f4b73d"/>
              <path id="Path_567" data-name="Path 567" d="M175.275,554.161c.659-.119,1.07-.284,1.07-.468v-.614h-1.07Z" transform="translate(-169.245 -552.423)" fill="#f5a505"/>
              <path id="Path_568" data-name="Path 568" d="M169.708,552.982v1.276a12.773,12.773,0,0,0,1.658-.17v-1.082h-1.219C170.005,553,169.858,552.99,169.708,552.982Z" transform="translate(-165.337 -552.35)" fill="#ea8d0b"/>
              <path id="Path_569" data-name="Path 569" d="M158.582,550.45c-1.961,0-3.55.294-3.55.655s1.589.655,3.55.655,3.55-.294,3.55-.655S160.542,550.45,158.582,550.45Z" transform="translate(-155.032 -550.45)" fill="#ffca00"/>
              <path id="Path_570" data-name="Path 570" d="M159.706,550.8c-1.7,0-3.072.218-3.072.483s1.375.483,3.072.483,3.072-.218,3.072-.483S161.4,550.8,159.706,550.8Z" transform="translate(-156.157 -550.713)" fill="#f5a505"/>
            </g>
          </g>
          <path id="Path_571" data-name="Path 571" d="M193.9,558.625v.283c0,.131-.107.24-.285.331a2.167,2.167,0,0,1-.38.144.129.129,0,0,1,.017.062v.619a.281.281,0,0,1-.093.194.629.629,0,0,1-.117.091c.044.015.084.03.121.046a.825.825,0,0,1,.233.131.257.257,0,0,1,.06.073.135.135,0,0,1,.015.062v.618a.274.274,0,0,1-.087.188.509.509,0,0,1-.1.087l-.015.01a.989.989,0,0,1-.1.054.131.131,0,0,1,.017.064v.622a.081.081,0,0,1,0,.017v0a.207.207,0,0,1-.012.053q.087.029.156.057a.855.855,0,0,1,.23.134.244.244,0,0,1,.059.072.131.131,0,0,1,.015.061v.617a.273.273,0,0,1-.087.188.594.594,0,0,1-.119.1c-.019.012-.039.024-.061.035l-.035.018a.135.135,0,0,1,.017.065v.63a.277.277,0,0,1-.063.149.429.429,0,0,1-.069.068.329.329,0,0,1,.044.034,4.255,4.255,0,0,1-1.553-.38.484.484,0,0,1-.168-.162h0a.179.179,0,0,1-.072-.131v-.613c0-.067.053-.131.153-.19a.362.362,0,0,1-.073-.091.175.175,0,0,1-.064-.124V562.3c0-.1.124-.2.346-.282a.175.175,0,0,1-.062-.122v-.615a.029.029,0,0,1,0-.01.747.747,0,0,1-.382-.27.174.174,0,0,1-.064-.125v-.613c0-.1.124-.2.347-.283a.17.17,0,0,1-.062-.122v-.613C191.6,558.958,192.554,558.718,193.9,558.625Z" transform="translate(-179.793 -555.305)" fill="#a7660a" opacity="0.4"/>
          <g id="Group_7064" data-name="Group 7064" transform="translate(5.462)">
            <g id="Group_7055" data-name="Group 7055" transform="translate(0.63 8.776)">
              <path id="Path_572" data-name="Path 572" d="M180.25,585.581v.018c-.044.59-2.292.747-3.551.747-.081,0-.168,0-.256,0-.407-.007-.881-.027-1.339-.073a4.629,4.629,0,0,1-1.712-.4.489.489,0,0,1-.168-.161h0a.214.214,0,0,1-.044-.131Z" transform="translate(-173.15 -584.311)" fill="#a7660a"/>
              <path id="Path_573" data-name="Path 573" d="M175.8,583.024V584.3c-.23-.01-.452-.024-.662-.044a4.451,4.451,0,0,1-1.979-.462h0a.179.179,0,0,1-.072-.131v-.613h2.29c.131-.01.269-.016.409-.023Z" transform="translate(-173.08 -582.392)" fill="#f5a505"/>
              <path id="Path_574" data-name="Path 574" d="M182.189,582.967v1.275c.268.012.548.018.837.018s.558-.006.822-.018v-1.276c-.264-.012-.538-.018-.822-.018S182.456,582.955,182.189,582.967Z" transform="translate(-179.475 -582.335)" fill="#f4b73d"/>
              <path id="Path_575" data-name="Path 575" d="M193.323,584.2c.658-.119,1.07-.284,1.07-.469v-.614h-1.07Z" transform="translate(-187.292 -582.464)" fill="#f5a505"/>
              <path id="Path_576" data-name="Path 576" d="M187.756,583.023V584.3a12.72,12.72,0,0,0,1.658-.17v-1.082h-1.219C188.053,583.037,187.906,583.03,187.756,583.023Z" transform="translate(-183.384 -582.392)" fill="#ea8d0b"/>
              <path id="Path_577" data-name="Path 577" d="M180.177,581.147c0,.184-.409.349-1.07.469a11.267,11.267,0,0,1-1.228.145c-.139.01-.283.018-.431.024-.262.012-.539.018-.822.018s-.567-.006-.837-.018l-.235-.012-.182-.012c-1.342-.093-2.3-.333-2.3-.614,0-.067.053-.131.152-.192l.028-.016a2.32,2.32,0,0,1,.576-.2c.166-.039.355-.074.565-.1a13.293,13.293,0,0,1,1.391-.128h.028c.262-.012.531-.017.809-.017s.56.006.824.018h.013a13.638,13.638,0,0,1,1.406.131c.087.014.172.027.252.044.106.019.206.04.3.061a2.28,2.28,0,0,1,.591.206l.048.03a.222.222,0,0,1,.119.166Z" transform="translate(-173.077 -580.491)" fill="#ffca00"/>
              <path id="Path_578" data-name="Path 578" d="M177.754,580.844c-1.7,0-3.072.218-3.072.483s1.375.483,3.072.483,3.072-.218,3.072-.483S179.451,580.844,177.754,580.844Z" transform="translate(-174.204 -580.756)" fill="#f5a505"/>
            </g>
            <g id="Group_7056" data-name="Group 7056" transform="translate(0.645 7.756)">
              <path id="Path_579" data-name="Path 579" d="M180.305,581.495v.019a.316.316,0,0,1-.131.218,1.123,1.123,0,0,1-.315.169c-.061.024-.127.044-.2.067-.131.038-.279.072-.436.1a12.38,12.38,0,0,1-1.658.174c-.291.014-.567.019-.807.019s-.546-.007-.852-.021l-.109-.006a8.534,8.534,0,0,1-2.044-.309c-.024-.009-.049-.017-.072-.027a1.026,1.026,0,0,1-.336-.191.362.362,0,0,1-.073-.089.245.245,0,0,1-.034-.124Z" transform="translate(-173.205 -580.225)" fill="#a7660a"/>
              <path id="Path_580" data-name="Path 580" d="M175.843,578.941v1.275h-.015c-.024,0-.049,0-.074,0a10.943,10.943,0,0,1-1.865-.227c-.11-.025-.209-.053-.3-.082a1.47,1.47,0,0,1-.3-.125.49.49,0,0,1-.1-.074.175.175,0,0,1-.064-.124v-.613h2.29c.1-.007.211-.013.32-.018Z" transform="translate(-173.129 -578.308)" fill="#f5a505"/>
              <path id="Path_581" data-name="Path 581" d="M182.24,578.885v1.275c.268.012.548.018.836.018s.558-.007.822-.018v-1.276c-.264-.011-.538-.018-.822-.018S182.508,578.873,182.24,578.885Z" transform="translate(-179.526 -578.252)" fill="#f4b73d"/>
              <path id="Path_582" data-name="Path 582" d="M193.374,580.12c.658-.119,1.07-.284,1.07-.468v-.613h-1.07Z" transform="translate(-187.343 -578.382)" fill="#f5a505"/>
              <path id="Path_583" data-name="Path 583" d="M187.807,578.94v1.276a12.72,12.72,0,0,0,1.658-.17v-1.08h-1.22C188.1,578.954,187.957,578.947,187.807,578.94Z" transform="translate(-183.435 -578.308)" fill="#ea8d0b"/>
              <path id="Path_584" data-name="Path 584" d="M180.229,577.063c0,.184-.409.349-1.07.469-.08.015-.164.028-.252.041-.106.017-.218.032-.335.044-.2.023-.408.044-.63.058-.143.01-.29.018-.442.024-.262.012-.539.018-.822.018s-.567-.006-.837-.018c-.146-.006-.289-.014-.427-.024-.227-.016-.443-.036-.645-.06l-.336-.044c-.8-.12-1.306-.3-1.306-.508,0-.1.124-.2.347-.284h0a3.241,3.241,0,0,1,.409-.122c.2-.047.44-.09.706-.126s.545-.063.851-.085c.186-.012.378-.022.576-.028.036,0,.072,0,.108,0,.18-.006.365-.008.552-.008.329,0,.646.008.948.024l.158.009a12.4,12.4,0,0,1,1.265.136c.142.024.274.049.393.076l.028.007a1.627,1.627,0,0,1,.694.282.23.23,0,0,1,.044.058.135.135,0,0,1,.021.066Z" transform="translate(-173.128 -576.406)" fill="#ffca00"/>
              <path id="Path_585" data-name="Path 585" d="M177.8,576.762c-1.7,0-3.072.216-3.072.482s1.375.483,3.072.483,3.072-.218,3.072-.483S179.5,576.762,177.8,576.762Z" transform="translate(-174.255 -576.673)" fill="#f5a505"/>
            </g>
            <g id="Group_7057" data-name="Group 7057" transform="translate(0.928 6.74)">
              <path id="Path_586" data-name="Path 586" d="M177.705,578.181c1.269,0,3.55-.161,3.55-.768h-7.069C174.186,578.018,176.436,578.181,177.705,578.181Z" transform="translate(-174.154 -576.145)" fill="#a7660a"/>
              <path id="Path_587" data-name="Path 587" d="M176.8,574.861v1.274c-.1,0-.191-.01-.284-.015l-.044,0a10.4,10.4,0,0,1-1.629-.215,2.7,2.7,0,0,1-.518-.168.655.655,0,0,1-.175-.113v0a.17.17,0,0,1-.062-.122v-.613h2.29C176.511,574.875,176.653,574.868,176.8,574.861Z" transform="translate(-174.083 -574.23)" fill="#f5a505"/>
              <path id="Path_588" data-name="Path 588" d="M183.194,574.8v1.275c.268.012.548.018.836.018s.558-.006.822-.018V574.8q-.4-.018-.822-.018C183.746,574.784,183.462,574.791,183.194,574.8Z" transform="translate(-180.479 -574.172)" fill="#f4b73d"/>
              <path id="Path_589" data-name="Path 589" d="M194.328,576.037c.658-.119,1.07-.284,1.07-.469v-.613h-1.07Z" transform="translate(-188.297 -574.301)" fill="#f5a505"/>
              <path id="Path_590" data-name="Path 590" d="M188.761,574.858v1.276a12.73,12.73,0,0,0,1.658-.17v-1.082H189.2C189.058,574.872,188.909,574.865,188.761,574.858Z" transform="translate(-184.388 -574.227)" fill="#ea8d0b"/>
              <path id="Path_591" data-name="Path 591" d="M181.182,572.983c0,.184-.409.349-1.07.469q-.185.035-.393.062c-.11.015-.225.028-.345.041q-.23.025-.48.044c-.143.01-.29.018-.442.024-.262.012-.539.018-.822.018s-.567-.006-.837-.018c-.146-.006-.289-.014-.427-.024l-.134-.01c-.226-.017-.44-.04-.639-.065-.117-.015-.23-.032-.336-.05-.724-.12-1.178-.294-1.178-.488a.04.04,0,0,1,0-.01.139.139,0,0,1,.025-.068,1.314,1.314,0,0,1,.728-.326c.087-.021.183-.041.283-.058l.071-.013a11.432,11.432,0,0,1,1.16-.136c.087-.006.181-.013.274-.018.319-.017.657-.027,1.008-.027.128,0,.253,0,.377,0,.061,0,.121,0,.181.006.528.015,1.015.051,1.44.1l.039,0c.288.038.544.083.761.133.1.025.2.051.283.078l.01,0C181.014,572.755,181.182,572.865,181.182,572.983Z" transform="translate(-174.08 -572.328)" fill="#ffca00"/>
              <path id="Path_592" data-name="Path 592" d="M178.759,572.679c-1.7,0-3.072.218-3.072.483s1.375.483,3.072.483,3.072-.218,3.072-.483S180.456,572.679,178.759,572.679Z" transform="translate(-175.208 -572.592)" fill="#f5a505"/>
            </g>
            <g id="Group_7058" data-name="Group 7058" transform="translate(0.484 5.72)">
              <path id="Path_593" data-name="Path 593" d="M179.764,573.33a.111.111,0,0,1,0,.025v0a.207.207,0,0,1-.012.053.341.341,0,0,1-.093.131,1.056,1.056,0,0,1-.34.192c-.055.021-.113.041-.175.059a8.379,8.379,0,0,1-1.658.256c-.454.034-.9.047-1.265.047-.122,0-.254,0-.393,0-.234-.006-.486-.016-.742-.033l-.137-.01h0a7.045,7.045,0,0,1-1.8-.315l-.027-.01a.742.742,0,0,1-.381-.27.241.241,0,0,1-.034-.124Z" transform="translate(-172.665 -572.06)" fill="#a7660a"/>
              <path id="Path_594" data-name="Path 594" d="M175.3,570.779v1.275c-.131-.006-.262-.013-.386-.021a11.969,11.969,0,0,1-1.254-.146c-.113-.021-.218-.044-.317-.065s-.2-.051-.286-.079a1.082,1.082,0,0,1-.406-.2.175.175,0,0,1-.065-.124V570.8h2.29C175.015,570.793,175.157,570.785,175.3,570.779Z" transform="translate(-172.588 -570.146)" fill="#f5a505"/>
              <path id="Path_595" data-name="Path 595" d="M181.7,570.72v1.275c.268.012.548.018.836.018s.558-.006.822-.018v-1.276q-.4-.018-.822-.018C182.252,570.7,181.968,570.708,181.7,570.72Z" transform="translate(-178.986 -570.088)" fill="#f4b73d"/>
              <path id="Path_596" data-name="Path 596" d="M192.833,571.954c.658-.119,1.07-.284,1.07-.468v-.614h-1.07Z" transform="translate(-186.803 -570.216)" fill="#f5a505"/>
              <path id="Path_597" data-name="Path 597" d="M187.266,570.775v1.276a12.741,12.741,0,0,0,1.658-.17V570.8H187.7C187.563,570.789,187.416,570.782,187.266,570.775Z" transform="translate(-182.894 -570.143)" fill="#ea8d0b"/>
              <path id="Path_598" data-name="Path 598" d="M176.139,568.243c-1.961,0-3.55.294-3.55.655s1.589.655,3.55.655,3.55-.294,3.55-.655S178.1,568.243,176.139,568.243Z" transform="translate(-172.589 -568.243)" fill="#ffca00"/>
              <path id="Path_599" data-name="Path 599" d="M177.264,568.6c-1.7,0-3.072.218-3.072.483s1.375.483,3.072.483,3.072-.218,3.072-.483S178.961,568.6,177.264,568.6Z" transform="translate(-173.714 -568.51)" fill="#f5a505"/>
            </g>
            <g id="Group_7059" data-name="Group 7059" transform="translate(0.769 4.701)">
              <path id="Path_600" data-name="Path 600" d="M177.164,570.016c1.269,0,3.55-.161,3.55-.768h-7.069C173.645,569.855,175.894,570.016,177.164,570.016Z" transform="translate(-173.614 -567.979)" fill="#a7660a"/>
              <path id="Path_601" data-name="Path 601" d="M173.543,566.721v.613c0,.309,1.157.567,2.714.638V566.7c-.145.007-.288.014-.425.024Z" transform="translate(-173.543 -566.066)" fill="#f5a505"/>
              <path id="Path_602" data-name="Path 602" d="M182.653,566.637v1.275c.268.012.548.018.836.018s.558-.007.822-.018v-1.276c-.264-.011-.538-.018-.822-.018S182.922,566.625,182.653,566.637Z" transform="translate(-179.939 -566.005)" fill="#f4b73d"/>
              <path id="Path_603" data-name="Path 603" d="M193.787,567.872c.658-.119,1.07-.284,1.07-.469v-.613h-1.07Z" transform="translate(-187.757 -566.134)" fill="#f5a505"/>
              <path id="Path_604" data-name="Path 604" d="M188.22,566.692v1.276a12.763,12.763,0,0,0,1.658-.17v-1.082h-1.219C188.517,566.706,188.37,566.7,188.22,566.692Z" transform="translate(-183.848 -566.06)" fill="#ea8d0b"/>
              <path id="Path_605" data-name="Path 605" d="M177.093,564.16c-1.96,0-3.55.294-3.55.655s1.589.655,3.55.655,3.55-.294,3.55-.655S179.053,564.16,177.093,564.16Z" transform="translate(-173.543 -564.16)" fill="#ffca00"/>
              <ellipse id="Ellipse_110" data-name="Ellipse 110" cx="3.072" cy="0.483" rx="3.072" ry="0.483" transform="translate(0.477 0.088)" fill="#f5a505"/>
            </g>
            <g id="Group_7060" data-name="Group 7060" transform="translate(0.552 3.483)">
              <path id="Path_606" data-name="Path 606" d="M176.435,565.135c1.269,0,3.55-.161,3.55-.768h-7.069C172.916,564.974,175.165,565.135,176.435,565.135Z" transform="translate(-172.885 -563.098)" fill="#a7660a"/>
              <path id="Path_607" data-name="Path 607" d="M172.814,561.838v.614c0,.309,1.157.567,2.714.638v-1.275c-.145.007-.288.014-.425.024Z" transform="translate(-172.814 -561.182)" fill="#f5a505"/>
              <path id="Path_608" data-name="Path 608" d="M181.924,561.755v1.274c.268.012.548.018.836.018s.558-.006.822-.018v-1.276q-.4-.018-.822-.018C182.476,561.735,182.192,561.743,181.924,561.755Z" transform="translate(-179.21 -561.123)" fill="#f4b73d"/>
              <path id="Path_609" data-name="Path 609" d="M193.058,562.99c.658-.119,1.07-.284,1.07-.468v-.614h-1.07Z" transform="translate(-187.028 -561.252)" fill="#f5a505"/>
              <path id="Path_610" data-name="Path 610" d="M187.491,561.811v1.276a12.73,12.73,0,0,0,1.658-.17v-1.082h-1.218C187.788,561.825,187.641,561.818,187.491,561.811Z" transform="translate(-183.119 -561.179)" fill="#ea8d0b"/>
              <path id="Path_611" data-name="Path 611" d="M176.364,559.279c-1.96,0-3.55.294-3.55.655s1.589.655,3.55.655,3.55-.294,3.55-.655S178.324,559.279,176.364,559.279Z" transform="translate(-172.814 -559.279)" fill="#ffca00"/>
              <path id="Path_612" data-name="Path 612" d="M177.489,559.632c-1.7,0-3.072.218-3.072.483s1.375.483,3.072.483,3.072-.218,3.072-.483S179.186,559.632,177.489,559.632Z" transform="translate(-173.94 -559.544)" fill="#f5a505"/>
            </g>
            <g id="Group_7061" data-name="Group 7061" transform="translate(1.201 2.331)">
              <path id="Path_613" data-name="Path 613" d="M178.618,560.518c1.269,0,3.55-.161,3.55-.768H175.1C175.1,560.357,177.348,560.518,178.618,560.518Z" transform="translate(-175.068 -558.481)" fill="#a7660a"/>
              <path id="Path_614" data-name="Path 614" d="M174.994,557.222v.613c0,.309,1.157.567,2.714.638V557.2c-.145.007-.288.014-.425.024Z" transform="translate(-174.994 -556.566)" fill="#f5a505"/>
              <path id="Path_615" data-name="Path 615" d="M184.1,557.139v1.275c.268.012.548.018.836.018s.558-.007.822-.018v-1.276c-.264-.011-.538-.018-.822-.018S184.37,557.127,184.1,557.139Z" transform="translate(-181.388 -556.507)" fill="#f4b73d"/>
              <path id="Path_616" data-name="Path 616" d="M195.238,558.374c.658-.119,1.07-.284,1.07-.468v-.613h-1.07Z" transform="translate(-189.208 -556.636)" fill="#f5a505"/>
              <path id="Path_617" data-name="Path 617" d="M189.671,557.194v1.276a12.741,12.741,0,0,0,1.658-.17v-1.082H190.11C189.968,557.208,189.821,557.2,189.671,557.194Z" transform="translate(-185.299 -556.562)" fill="#ea8d0b"/>
              <path id="Path_618" data-name="Path 618" d="M178.544,554.662c-1.961,0-3.55.294-3.55.655s1.589.655,3.55.655,3.55-.294,3.55-.655S180.5,554.662,178.544,554.662Z" transform="translate(-174.994 -554.662)" fill="#ffca00"/>
              <ellipse id="Ellipse_111" data-name="Ellipse 111" cx="3.072" cy="0.483" rx="3.072" ry="0.483" transform="translate(0.477 0.088)" fill="#f5a505"/>
            </g>
            <g id="Group_7062" data-name="Group 7062" transform="translate(0 1.313)">
              <path id="Path_619" data-name="Path 619" d="M174.583,556.435c1.269,0,3.55-.161,3.55-.768h-7.069C171.064,556.274,173.313,556.435,174.583,556.435Z" transform="translate(-171.033 -554.398)" fill="#a7660a"/>
              <path id="Path_620" data-name="Path 620" d="M170.962,553.137v.613c0,.309,1.157.567,2.714.638v-1.275c-.145.007-.288.014-.425.024Z" transform="translate(-170.962 -552.481)" fill="#f5a505"/>
              <path id="Path_621" data-name="Path 621" d="M180.072,553.057v1.274c.268.012.548.018.836.018s.558-.006.822-.018v-1.275q-.4-.018-.822-.018C180.624,553.038,180.34,553.045,180.072,553.057Z" transform="translate(-177.358 -552.424)" fill="#f4b73d"/>
              <path id="Path_622" data-name="Path 622" d="M191.206,554.29c.658-.119,1.07-.284,1.07-.469v-.614h-1.07Z" transform="translate(-185.176 -552.552)" fill="#f5a505"/>
              <path id="Path_623" data-name="Path 623" d="M185.639,553.112v1.275a12.73,12.73,0,0,0,1.658-.17v-1.082h-1.219C185.936,553.126,185.789,553.119,185.639,553.112Z" transform="translate(-181.267 -552.48)" fill="#ea8d0b"/>
              <path id="Path_624" data-name="Path 624" d="M174.515,550.579c-1.961,0-3.55.294-3.55.655s1.589.655,3.55.655,3.55-.294,3.55-.655S176.474,550.579,174.515,550.579Z" transform="translate(-170.964 -550.579)" fill="#ffca00"/>
              <path id="Path_625" data-name="Path 625" d="M175.637,550.933c-1.7,0-3.072.218-3.072.483s1.375.483,3.072.483,3.072-.218,3.072-.483S177.334,550.933,175.637,550.933Z" transform="translate(-172.088 -550.845)" fill="#f5a505"/>
            </g>
            <g id="Group_7063" data-name="Group 7063" transform="translate(0.417)">
              <path id="Path_626" data-name="Path 626" d="M175.991,551.173c1.269,0,3.55-.161,3.55-.768h-7.069C172.472,551.014,174.721,551.173,175.991,551.173Z" transform="translate(-172.439 -549.136)" fill="#a7660a"/>
              <path id="Path_627" data-name="Path 627" d="M172.37,547.875v.613c0,.309,1.157.567,2.714.638v-1.275c-.145.007-.288.014-.425.024Z" transform="translate(-172.368 -547.219)" fill="#f5a505"/>
              <path id="Path_628" data-name="Path 628" d="M181.48,547.795v1.275c.268.012.548.018.836.018s.558-.006.822-.018v-1.276c-.262-.012-.538-.018-.822-.018S181.751,547.783,181.48,547.795Z" transform="translate(-178.764 -547.162)" fill="#f4b73d"/>
              <path id="Path_629" data-name="Path 629" d="M192.614,549.029c.658-.119,1.07-.284,1.07-.469v-.613h-1.07Z" transform="translate(-186.582 -547.291)" fill="#f5a505"/>
              <path id="Path_630" data-name="Path 630" d="M187.046,547.85v1.276a12.719,12.719,0,0,0,1.658-.17v-1.082h-1.219C187.344,547.864,187.2,547.857,187.046,547.85Z" transform="translate(-182.672 -547.218)" fill="#ea8d0b"/>
              <path id="Path_631" data-name="Path 631" d="M175.915,545.317c-1.961,0-3.55.294-3.55.655s1.589.655,3.55.655,3.55-.294,3.55-.655S177.878,545.317,175.915,545.317Z" transform="translate(-172.365 -545.317)" fill="#ffca00"/>
              <path id="Path_632" data-name="Path 632" d="M177.044,545.671c-1.7,0-3.072.218-3.072.483s1.376.483,3.072.483,3.072-.218,3.072-.483S178.741,545.671,177.044,545.671Z" transform="translate(-173.492 -545.583)" fill="#f5a505"/>
            </g>
          </g>
          <path id="Path_633" data-name="Path 633" d="M175.466,574.05h0a2.114,2.114,0,0,1-.031.357,1.966,1.966,0,0,1-.058.251c-.01.037-.022.072-.035.108,0,.013-.009.024-.014.037h0a2.294,2.294,0,0,1-.105.24.058.058,0,0,0-.007.012,2.49,2.49,0,0,1-.427.582c-.026.027-.052.053-.08.078l-.019.017a4.628,4.628,0,0,1-1.712-.4.489.489,0,0,1-.168-.161h0a.179.179,0,0,1-.072-.131v-.613c0-.067.053-.131.153-.192a.36.36,0,0,1-.073-.089.175.175,0,0,1-.064-.124v-.613c0-.1.124-.2.347-.284a.17.17,0,0,1-.062-.122v-.613a.046.046,0,0,1,0-.01.742.742,0,0,1-.381-.27.174.174,0,0,1-.065-.124v-.446a.687.687,0,0,1,.079,0,.234.234,0,0,1,.046,0,3.366,3.366,0,0,1,1.3.352h0c.019.01.037.019.055.03.036.018.071.038.105.058l.026.015a2.838,2.838,0,0,1,.515.39,2.576,2.576,0,0,1,.2.211,1.287,1.287,0,0,1,.087.114s0,0,0,0c.02.025.037.048.055.074a.946.946,0,0,1,.055.087c.024.038.048.076.068.114l.006.01a2.148,2.148,0,0,1,.167.387,1.789,1.789,0,0,1,.061.233.942.942,0,0,1,.019.109.523.523,0,0,1,.008.054v0c0,.028.007.058.009.087a1.45,1.45,0,0,1,.007.145A.222.222,0,0,1,175.466,574.05Z" transform="translate(-166.645 -564.999)" fill="#a7660a" opacity="0.4"/>
          <g id="Group_7071" data-name="Group 7071" transform="translate(1.739 6.104)">
            <g id="Group_7070" data-name="Group 7070" transform="translate(0 0)">
              <g id="Group_7068" data-name="Group 7068">
                <g id="Group_7065" data-name="Group 7065" transform="translate(0.662 0.412)">
                  <path id="Path_634" data-name="Path 634" d="M160.689,573.943a2.787,2.787,0,0,0,3,2.511v-5.022A2.787,2.787,0,0,0,160.689,573.943Z" transform="translate(-160.689 -571.432)" fill="#f5a505"/>
                  <path id="Path_635" data-name="Path 635" d="M173.749,573.943a2.125,2.125,0,0,1-.137.753,2.431,2.431,0,0,1-.62.916,3.166,3.166,0,0,1-1.674.8,3.588,3.588,0,0,1-.567.044v-5.023c.068,0,.135,0,.2.006A2.749,2.749,0,0,1,173.749,573.943Z" transform="translate(-167.754 -571.432)" fill="#f5a505"/>
                </g>
                <path id="Path_636" data-name="Path 636" d="M161.734,571.432a2.55,2.55,0,1,0,3,2.511A2.787,2.787,0,0,0,161.734,571.432Z" transform="translate(-158.656 -571.02)" fill="#ffca00"/>
                <g id="Group_7067" data-name="Group 7067">
                  <path id="Path_2870" data-name="Path 2870" d="M2.007,0A2.686,2.686,0,0,1,4.3,2.581a1.984,1.984,0,0,1-2,2.29A2.685,2.685,0,0,1,0,2.294,1.984,1.984,0,0,1,2.007,0Z" transform="translate(0 3.973) rotate(-67.358)" fill="#f5a505"/>
                  <g id="Group_7066" data-name="Group 7066" transform="translate(1.992 1.548)">
                    <path id="Path_637" data-name="Path 637" d="M165.153,575.986h1.378c.691,0,.943.346.943.747a.562.562,0,0,1-.457.6.607.607,0,0,1,.511.63c0,.521-.28.822-.983.822h-1.39Zm1.34,1.109c.23,0,.349-.117.349-.317,0-.26-.189-.319-.349-.319h-.7v.637Zm.025,1.217a.329.329,0,0,0,.369-.374.349.349,0,0,0-.369-.393h-.724v.766Z" transform="translate(-165.153 -575.986)" fill="#ffca00"/>
                  </g>
                </g>
              </g>
              <g id="Group_7069" data-name="Group 7069" transform="translate(0.081 0.413)" opacity="0.3">
                <path id="Path_638" data-name="Path 638" d="M161.012,571.506l-2.187,1.833a2.122,2.122,0,0,0-.087.6l2.991-2.506A3.54,3.54,0,0,0,161.012,571.506Z" transform="translate(-158.738 -571.434)" fill="#ffca00"/>
                <path id="Path_639" data-name="Path 639" d="M163.221,572.06l-3.855,3.229a2.593,2.593,0,0,0,.958,1.1l4.21-3.526A3.037,3.037,0,0,0,163.221,572.06Z" transform="translate(-159.179 -571.904)" fill="#ffca00"/>
              </g>
            </g>
            <path id="Path_640" data-name="Path 640" d="M159.08,572.927l.312.295.452.107-.352.262-.128.379-.311-.295-.453-.107.352-.262Z" transform="translate(-158.56 -572.142)" fill="#fff"/>
          </g>
        </g>
      </g>
    </g>
  </g>
</svg>
