<svg xmlns="http://www.w3.org/2000/svg" width="69" height="70" viewBox="0 0 69 70">
  <g id="Group_579" data-name="Group 579" transform="translate(0.059 0.487)">
    <ellipse id="Ellipse_1974" data-name="Ellipse 1974" cx="34.5" cy="35" rx="34.5" ry="35" transform="translate(-0.059 -0.487)" fill="#d8d9f3"/>
    <g id="lock" transform="translate(9.941 10.513)">
      <g id="XMLID_500_">
        <g id="Group_11510" data-name="Group 11510">
          <g id="XMLID_980_">
            <g id="XMLID_981_">
              <g id="XMLID_982_">
                <g id="XMLID_983_">
                  <g id="XMLID_984_">
                    <g id="XMLID_986_">
                      <g id="XMLID_989_">
                        <g id="XMLID_1008_">
                          <g id="XMLID_1009_">
                            <g id="XMLID_1010_">
                              <g id="XMLID_1011_">
                                <g id="XMLID_1012_">
                                  <g id="XMLID_1013_">
                                    <g id="XMLID_1014_">
                                      <circle id="Ellipse_1982" data-name="Ellipse 1982" cx="24" cy="24" r="24" fill="#7789ff"/>
                                    </g>
                                  </g>
                                </g>
                              </g>
                            </g>
                          </g>
                        </g>
                      </g>
                    </g>
                  </g>
                </g>
              </g>
            </g>
          </g>
        </g>
      </g>
      <g id="Group_11520" data-name="Group 11520" transform="translate(14.841 10.131)">
        <g id="Group_11519" data-name="Group 11519">
          <g id="Group_11518" data-name="Group 11518">
            <g id="Group_11511" data-name="Group 11511" transform="translate(2.397)">
              <path id="Path_5434" data-name="Path 5434" d="M163.212,49.362h-3.88V44.348a2.745,2.745,0,1,0-5.489,0v5.013h-3.88V44.348a6.624,6.624,0,1,1,13.248,0Z" transform="translate(-149.964 -37.724)" fill="#fff"/>
            </g>
            <g id="Group_11515" data-name="Group 11515" transform="translate(9.159 0.001)">
              <g id="Group_11514" data-name="Group 11514">
                <g id="Group_11513" data-name="Group 11513">
                  <g id="Group_11512" data-name="Group 11512">
                    <path id="Path_5435" data-name="Path 5435" d="M262.487,44.363v5.013h-3.88V44.363A2.747,2.747,0,0,0,256,41.622V37.74A6.632,6.632,0,0,1,262.487,44.363Z" transform="translate(-256 -37.74)" fill="#e9edf5"/>
                  </g>
                </g>
              </g>
            </g>
            <g id="Group_11516" data-name="Group 11516" transform="translate(0 11.261)">
              <path id="Path_5436" data-name="Path 5436" d="M124.33,229.844h-5.588a6.365,6.365,0,0,1-6.365-6.365v-9.162H130.7v9.162A6.365,6.365,0,0,1,124.33,229.844Z" transform="translate(-112.378 -214.317)" fill="#ffaa20"/>
            </g>
            <g id="Group_11517" data-name="Group 11517" transform="translate(9.159 11.261)">
              <path id="Path_5437" data-name="Path 5437" d="M265.158,214.32v9.162a6.365,6.365,0,0,1-6.365,6.365H256V214.32Z" transform="translate(-256 -214.32)" fill="#ff8900"/>
            </g>
          </g>
        </g>
        <path id="Path_5438" data-name="Path 5438" d="M225.141,277.8a2.255,2.255,0,1,0-3.738,1.7l-.59,3.763h4.145l-.59-3.763A2.25,2.25,0,0,0,225.141,277.8Z" transform="translate(-213.727 -260.379)" fill="#9e653e"/>
        <path id="Path_5439" data-name="Path 5439" d="M257.482,279.5l.59,3.764H256V275.55a2.254,2.254,0,0,1,1.482,3.954Z" transform="translate(-246.841 -260.384)" fill="#835637"/>
      </g>
    </g>
  </g>
</svg>
