<svg xmlns="http://www.w3.org/2000/svg" width="43.401" height="44.218" viewBox="0 0 43.401 44.218">
  <g id="list" transform="translate(-4.731)">
    <path id="Path_5383" data-name="Path 5383" d="M30.661,88.479H8.315A3.583,3.583,0,0,1,4.732,84.9V52.028a3.583,3.583,0,0,1,3.583-3.583H34.092a3.583,3.583,0,0,1,3.583,3.583V81.465A7.014,7.014,0,0,1,30.661,88.479Z" transform="translate(-0.001 -44.261)" fill="#b0a7fb"/>
    <path id="Path_5384" data-name="Path 5384" d="M4.731,52.028V84.9a3.583,3.583,0,0,0,3.583,3.583H19.05c-6.288-5.017-6.763-27.367-6.784-40.034H8.314a3.583,3.583,0,0,0-3.583,3.583Z" transform="translate(0 -44.261)" fill="#8171ff"/>
    <path id="Path_5385" data-name="Path 5385" d="M299.154,125.9l-6.923,6.923a4.421,4.421,0,0,0-1.3,3.146v2.105a3.7,3.7,0,0,0,3.695,3.695h2.105a4.419,4.419,0,0,0,2.427-.719Z" transform="translate(-261.479 -115.027)" fill="#bbb2ff"/>
    <g id="Group_11502" data-name="Group 11502" transform="translate(9.273 10.558)">
      <path id="Path_5386" data-name="Path 5386" d="M257.933,243.05h-4.154a1.806,1.806,0,0,1-1.8-1.8v-4.154a1.806,1.806,0,0,1,1.8-1.8h4.154a1.806,1.806,0,0,1,1.8,1.8v4.154A1.806,1.806,0,0,1,257.933,243.05Zm-4.154-6.466a.509.509,0,0,0-.508.508v4.154a.509.509,0,0,0,.508.508h4.154a.509.509,0,0,0,.508-.508v-4.154a.509.509,0,0,0-.508-.508Z" transform="translate(-235.164 -225.527)" fill="#e9e6ff"/>
      <path id="Path_5387" data-name="Path 5387" d="M257.933,375.2h-4.154a1.806,1.806,0,0,1-1.8-1.8v-4.154a1.806,1.806,0,0,1,1.8-1.8h4.154a1.806,1.806,0,0,1,1.8,1.8V373.4A1.806,1.806,0,0,1,257.933,375.2Zm-4.154-6.466a.509.509,0,0,0-.508.508V373.4a.509.509,0,0,0,.508.508h4.154a.509.509,0,0,0,.508-.508v-4.154a.509.509,0,0,0-.508-.508Z" transform="translate(-235.164 -346.265)" fill="#e9e6ff"/>
      <g id="Group_11501" data-name="Group 11501">
        <path id="Path_5388" data-name="Path 5388" d="M67.685,123.544H57.968a.648.648,0,0,1,0-1.3h9.717a.648.648,0,0,1,0,1.3Z" transform="translate(-57.32 -122.249)" fill="#e9e6ff"/>
        <path id="Path_5389" data-name="Path 5389" d="M62.826,163.554H57.968a.648.648,0,0,1,0-1.3h4.859a.648.648,0,0,1,0,1.3Z" transform="translate(-57.32 -158.804)" fill="#e9e6ff"/>
        <path id="Path_5390" data-name="Path 5390" d="M67.685,255.7H57.968a.648.648,0,0,1,0-1.3h9.717a.648.648,0,0,1,0,1.3Z" transform="translate(-57.32 -242.987)" fill="#e9e6ff"/>
        <path id="Path_5391" data-name="Path 5391" d="M62.826,295.706H57.968a.648.648,0,0,1,0-1.3h4.859a.648.648,0,1,1,0,1.3Z" transform="translate(-57.32 -279.543)" fill="#e9e6ff"/>
        <path id="Path_5392" data-name="Path 5392" d="M67.685,387.848H57.968a.648.648,0,0,1,0-1.3h9.717a.648.648,0,0,1,0,1.3Z" transform="translate(-57.32 -363.727)" fill="#e9e6ff"/>
        <path id="Path_5393" data-name="Path 5393" d="M62.826,427.858H57.968a.648.648,0,0,1,0-1.3h4.859a.648.648,0,1,1,0,1.3Z" transform="translate(-57.32 -400.282)" fill="#e9e6ff"/>
      </g>
    </g>
    <path id="Path_5394" data-name="Path 5394" d="M264.966,120a.646.646,0,0,1-.458-.19l-1.829-1.829a.648.648,0,1,1,.916-.916l1.371,1.371,3.2-3.2a.648.648,0,0,1,.916.916l-3.657,3.657A.646.646,0,0,1,264.966,120Z" transform="translate(-235.498 -105.111)" fill="#fff"/>
    <g id="Group_11503" data-name="Group 11503" transform="translate(27.595 34.139)">
      <path id="Path_5395" data-name="Path 5395" d="M279.555,398.357a7.014,7.014,0,0,1-7.014,7.014h-3.065a2.944,2.944,0,0,0,2.944-2.944v-.608A3.583,3.583,0,0,1,276,398.236h.608a2.944,2.944,0,0,0,2.944-2.944v3.065Z" transform="translate(-269.476 -395.292)" fill="#bbb2ff"/>
    </g>
    <path id="Path_5396" data-name="Path 5396" d="M439.655,95.132l-1.281-1.281a1.829,1.829,0,0,0-2.587,0l-1.936,1.936,3.868,3.868,1.936-1.936A1.829,1.829,0,0,0,439.655,95.132Z" transform="translate(-392.059 -85.256)" fill="#dc7886"/>
    <path id="Path_5397" data-name="Path 5397" d="M0,0H11.823V5.471H0Z" transform="translate(33.426 18.893) rotate(-45)" fill="#f3be77"/>
    <path id="Path_5398" data-name="Path 5398" d="M337.049,166.16l3.868,3.868,2.711-2.711c-1.426-1.041-1.856-4.737-1.609-6.128Z" transform="translate(-303.618 -147.269)" fill="#f19a60"/>
    <path id="Path_5399" data-name="Path 5399" d="M323.146,218.741l-.793.793a1.78,1.78,0,0,0-.522,1.259V222.9a1.026,1.026,0,0,0,1.026,1.026h2.105a1.781,1.781,0,0,0,1.259-.522l.793-.793Z" transform="translate(-289.715 -199.85)" fill="#616a84"/>
    <path id="Path_5400" data-name="Path 5400" d="M169.852,0h-.705a2.1,2.1,0,0,0-2.1,2.1V4.018a2.1,2.1,0,0,0,2.1,2.1h.705a2.1,2.1,0,0,0,2.1-2.1V2.1a2.1,2.1,0,0,0-2.1-2.1Z" transform="translate(-148.297)" fill="#ff788b"/>
    <path id="Path_5401" data-name="Path 5401" d="M47.81,0h-.705A2.1,2.1,0,0,0,45,2.1V4.018a2.1,2.1,0,0,0,2.1,2.1h.705a2.1,2.1,0,0,0,2.1-2.1V2.1A2.1,2.1,0,0,0,47.81,0Z" transform="translate(-36.795)" fill="#ff788b"/>
    <path id="Path_5402" data-name="Path 5402" d="M291.189,0h.705A2.1,2.1,0,0,1,294,2.1V4.018a2.1,2.1,0,0,1-2.1,2.1h-.705a2.1,2.1,0,0,1-2.1-2.1V2.1a2.1,2.1,0,0,1,2.1-2.1Z" transform="translate(-259.799)" fill="#ff788b"/>
  </g>
</svg>
