<svg xmlns="http://www.w3.org/2000/svg" xmlns:xlink="http://www.w3.org/1999/xlink" width="141.067" height="36" viewBox="0 0 141.067 36">
  <defs>
    <linearGradient id="linear-gradient" x1="0.87" y1="0.255" x2="0.345" y2="0.781" gradientUnits="objectBoundingBox">
      <stop offset="0.188" stop-color="#8770fc"/>
      <stop offset="0.786" stop-color="#4c61fc"/>
    </linearGradient>
  </defs>
  <g id="Group_10456" data-name="Group 10456" transform="translate(-23.276 -15.818)">
    <g id="Group_10455" data-name="Group 10455" transform="translate(68.001 21.879)">
      <g id="Group_10454" data-name="Group 10454" transform="translate(0)">
        <path id="Path_4182" data-name="Path 4182" d="M501.644,101.04a11.217,11.217,0,0,1-2.817,1.332,10.8,10.8,0,0,1-3.261.478,10.314,10.314,0,0,1-4.679-1.059,11.976,11.976,0,0,1-3.637-2.767,12.193,12.193,0,0,1-2.339-3.927,13.023,13.023,0,0,1-.819-4.542,12.772,12.772,0,0,1,3.295-8.571,11.731,11.731,0,0,1,3.671-2.715,10.6,10.6,0,0,1,4.61-1.007,10.178,10.178,0,0,1,4.678,1.075,11.769,11.769,0,0,1,3.62,2.817,12.784,12.784,0,0,1,2.322,3.961,12.919,12.919,0,0,1,.82,4.508,12.76,12.76,0,0,1-.769,4.422,12.155,12.155,0,0,1-2.2,3.773l3.449,3.859h-4.473Zm-6.01-2.356a5.914,5.914,0,0,0,3.142-.854L495.122,93.7H499.6l1.5,1.708a9.639,9.639,0,0,0,1.263-4.85,9.766,9.766,0,0,0-.478-3.039,8.54,8.54,0,0,0-1.348-2.6,6.767,6.767,0,0,0-2.118-1.81,6.23,6.23,0,0,0-5.7.017A6.767,6.767,0,0,0,490.6,84.99a8.4,8.4,0,0,0-1.315,2.612A10.144,10.144,0,0,0,489.3,93.6a8.235,8.235,0,0,0,1.332,2.6A6.682,6.682,0,0,0,492.765,98,5.922,5.922,0,0,0,495.634,98.684Z" transform="translate(-484.092 -78.263)"/>
        <path id="Path_4183" data-name="Path 4183" d="M745.746,160.837a9.823,9.823,0,0,1-3.927-.751,8.817,8.817,0,0,1-2.954-2.031A8.955,8.955,0,0,1,737,155.1a9.623,9.623,0,0,1-.649-3.517,9.726,9.726,0,0,1,.649-3.552,8.961,8.961,0,0,1,1.861-2.954,8.835,8.835,0,0,1,2.954-2.032,9.842,9.842,0,0,1,3.927-.751,9.72,9.72,0,0,1,3.91.751,8.82,8.82,0,0,1,4.8,4.986,9.75,9.75,0,0,1,.649,3.552,9.647,9.647,0,0,1-.649,3.517,9.111,9.111,0,0,1-1.844,2.955,8.644,8.644,0,0,1-2.937,2.031A9.828,9.828,0,0,1,745.746,160.837Zm-4.679-9.254a6.242,6.242,0,0,0,.359,2.169,5.3,5.3,0,0,0,.99,1.69,4.42,4.42,0,0,0,1.485,1.109,4.524,4.524,0,0,0,3.688,0,4.425,4.425,0,0,0,1.485-1.109,5.254,5.254,0,0,0,.99-1.708,6.364,6.364,0,0,0,.359-2.185,6.269,6.269,0,0,0-.359-2.152,5.249,5.249,0,0,0-.99-1.707,4.427,4.427,0,0,0-1.485-1.11,4.373,4.373,0,0,0-1.844-.393,4.214,4.214,0,0,0-1.845.41,4.635,4.635,0,0,0-1.485,1.127,5.272,5.272,0,0,0-.99,1.707A6.292,6.292,0,0,0,741.068,151.583Z" transform="translate(-711.871 -136.079)"/>
        <path id="Path_4184" data-name="Path 4184" d="M958.513,104.655a11.154,11.154,0,0,1-3,1.676,10.456,10.456,0,0,1-8.048-.435,11.622,11.622,0,0,1-3.538-2.717,12.122,12.122,0,0,1-2.28-3.856,12.782,12.782,0,0,1-.8-4.46,12.38,12.38,0,0,1,.855-4.56,12.572,12.572,0,0,1,2.364-3.857,11.435,11.435,0,0,1,3.555-2.666,10.047,10.047,0,0,1,4.426-.989,9.815,9.815,0,0,1,4.544,1.056,11.422,11.422,0,0,1,3.521,2.767,12.786,12.786,0,0,1,2.263,3.873,12.551,12.551,0,0,1,.8,4.41,12.489,12.489,0,0,1-3.354,8.55l2.817,3.32h-2.314Zm-6.506.168a7.742,7.742,0,0,0,2.783-.486,9.023,9.023,0,0,0,2.347-1.325l-2.984-3.555h2.313l1.911,2.28a10.384,10.384,0,0,0,1.811-3.2,10.96,10.96,0,0,0-.017-7.412,10.248,10.248,0,0,0-1.827-3.168,9.231,9.231,0,0,0-2.784-2.213,7.578,7.578,0,0,0-3.555-.839,7.806,7.806,0,0,0-3.655.855,8.707,8.707,0,0,0-2.783,2.264,10.478,10.478,0,0,0-1.76,3.2,11.131,11.131,0,0,0,.016,7.377,10.152,10.152,0,0,0,1.811,3.186A8.9,8.9,0,0,0,948.42,104,7.771,7.771,0,0,0,952.008,104.823Z" transform="translate(-896.51 -82.352)"/>
        <path id="Path_4185" data-name="Path 4185" d="M1194.935,164.821a8.483,8.483,0,0,1-6.3-2.7,9.183,9.183,0,0,1-1.828-2.9,9.429,9.429,0,0,1-.654-3.521,9.214,9.214,0,0,1,.654-3.47,8.776,8.776,0,0,1,4.594-4.8,8.521,8.521,0,0,1,9.742,1.962,9.208,9.208,0,0,1,2.414,6.271q0,.269-.016.537a1.7,1.7,0,0,1-.051.369h-14.922a7.375,7.375,0,0,0,2.063,4.662,6.176,6.176,0,0,0,1.978,1.357,5.97,5.97,0,0,0,2.4.487,6.321,6.321,0,0,0,1.71-.234,6.775,6.775,0,0,0,1.542-.638,5.4,5.4,0,0,0,1.258-.989,4.408,4.408,0,0,0,.855-1.291l1.979.537a5.808,5.808,0,0,1-1.141,1.76,7.929,7.929,0,0,1-1.71,1.375,8.391,8.391,0,0,1-2.146.905A9.18,9.18,0,0,1,1194.935,164.821Zm6.439-9.992a7,7,0,0,0-2.063-4.56,6.178,6.178,0,0,0-1.995-1.308,6.437,6.437,0,0,0-4.829,0,6.175,6.175,0,0,0-2,1.308,6.413,6.413,0,0,0-1.375,2.011,7.6,7.6,0,0,0-.621,2.549Z" transform="translate(-1118.01 -140.069)"/>
        <path id="Path_4186" data-name="Path 4186" d="M1395.611,150.894a7.177,7.177,0,0,0-4.024,1.274,6.427,6.427,0,0,0-2.414,3.32v10.865h-2.28V148.881h2.146v4.192a9.191,9.191,0,0,1,2.381-3.068,4.9,4.9,0,0,1,3.186-1.224h.57a2.319,2.319,0,0,1,.436.034Z" transform="translate(-1299.269 -141.937)"/>
      </g>
    </g>
    <path id="Path_4187" data-name="Path 4187" d="M50.115,44.17l-.9-.9a12.359,12.359,0,1,1,1.515-1.514l4,4h0l4.57,4.545-2.189-7.958a17.8,17.8,0,0,0,2.17-8.52,18,18,0,1,0-18,18,17.8,17.8,0,0,0,8.533-2.176l7.972,2.169L50.115,44.17Z" fill="url(#linear-gradient)"/>
  </g>
</svg>
